<?xml version="1.0" encoding="UTF-8"?>
<svg id="Capa_2" data-name="Capa 2" xmlns="http://www.w3.org/2000/svg" viewBox="0 0 216.13 248.06">
  <defs>
    <style>
      .cls-1 {
        fill: #3c3c3b;
      }

      .cls-2 {
        fill: #1d1d1b;
      }

      .cls-3 {
        fill: #575756;
      }

      .cls-4 {
        fill: #706f6f;
      }
    </style>
  </defs>
  <path class="cls-3" d="M73.53,237.75c-5.11-1.25-9.77-2.04-14.72.26s-1.71,8.36,2.39,8.82c5.73.64,11.62,1.14,17.4,1.03,2.07-.04,4.02-1.44,4.56-3.47.45-1.68.24-3.14.34-4.84.12-2.04.74-4.03.64-6.1-.19-4.14,0-8.09.11-12.24.2-8.13,1.14-16.39.49-24.5-.48-6.03-9.95-6.08-9.46,0,.61,7.67-.09,15.59-.42,23.28-.16,3.61-.81,7.39-.57,11,.14,2.24.18,3.84-.08,6.08-.18,1.52.22,3.37-.16,4.81l4.56-3.47c-5.75.11-11.7-.39-17.4-1.03l2.39,8.82c2.2-1.02,5.28.17,7.42.7,5.92,1.45,8.44-7.68,2.52-9.13h0Z"/>
  <path class="cls-3" d="M122.06,246.94c2.43-.55,5.59-1.83,7.88-.55,1.22-2.88,2.43-5.77,3.65-8.65-6.61-1.04-12.98,1.16-19.62.83l4.56,3.47c.37,1.92.14-.09.15-.8.02-.96-.14-1.93-.1-2.88.09-2.14.44-4.02.17-6.19-.51-4.08-.39-8.08-.46-12.19-.14-8.14-.02-16.45-1.15-24.52-.84-6.01-9.96-3.45-9.13,2.52,1.09,7.77.72,15.99.86,23.84.07,3.95.06,7.72.48,11.65.4,3.69-.67,7.42.05,11.09.41,2.1,2.59,3.38,4.56,3.47,2.91.14,5.66-.34,8.55-.55s5.82-1.05,8.56-.62c4.96.78,8.68-5.82,3.65-8.65s-9.84-1.62-15.17-.41c-5.94,1.36-3.42,10.48,2.52,9.13h0Z"/>
  <path class="cls-4" d="M63.81,44s-.53-1.24-.99-1.13c-.19.05-.37.37-.64.44-.21.05-.15,1.24-.4,1.3-.22.06-.68-.77-.93-.7-.22.06-.44.16-.68.23-.22.06-.47.06-.71.13-.22.06-.32.59-.56.66-.22.07-.65-.52-.89-.45-.22.07-.27.73-.51.8s-.28.68-.51.76-.74-.75-.97-.67-.62-.34-.85-.26,0,1.5-.23,1.58-.45.14-.68.22-.88-1.05-1.11-.96-.36.42-.59.5-.3.55-.53.63-.41.27-.63.35-.43.21-.65.29-.76-.64-.98-.55-.1,1.05-.32,1.14-.51,0-.73.1-.58-.16-.8-.06-.26.62-.48.71-.82-.7-1.04-.6.05,1.33-.17,1.43-.44.18-.66.28-.62-.23-.84-.13-.55-.06-.77.04-.16.8-.37.9-.77-.52-.99-.42-.32.45-.53.56-.62-.18-.84-.08-.41.26-.63.36-.22.64-.43.74-.19.68-.4.79-.64-.2-.86-.09-.5.08-.72.19-.56-.02-.77.1-.32.43-.53.54-.3.46-.51.58-.48.13-.69.25-.39.28-.6.41-.03.9-.24,1.02-1.17-1.03-1.38-.91.04,1-.17,1.12-.74-.28-.94-.15.24,1.3.04,1.43-.94-.58-1.14-.45-.39.28-.6.41-.35.34-.55.48-.07.76-.27.9-.53.07-.73.2-.21.54-.4.68-.95-.51-1.14-.37.16,1.05-.04,1.19-.39.28-.58.42-1.16-.75-1.35-.61,0,.8-.2.94-.65-.05-.84.1.21,1.04.02,1.19-.74-.16-.93,0,.17.96-.02,1.12-.39.27-.58.43-.38.29-.56.45-.46.2-.64.36-.3.38-.48.54-.91-.29-1.09-.13-.39.29-.57.45-.46.22-.64.39-.35.33-.53.5.51,1.22.34,1.39-.69-.02-.86.15-.71-.02-.88.15-.17.51-.34.68.01.67-.15.85-.63.07-.79.25,0,.64-.16.82-.42.27-.58.45-.56.15-.72.33-.5.21-.66.4-.3.38-.45.57-.42.29-.57.47.3.85.15,1.04-.61.14-.75.33.04.63-.1.83-.87-.04-1.01.16-.55.21-.69.41-.1.53-.24.73.73,1.07.59,1.27-.48.25-.61.45-.05.53-.18.74-.33.36-.45.56-1.02-.05-1.14.15-.12.49-.24.7-.08.51-.2.72-.22.43-.34.64-.8.12-.91.34.51.81.4,1.03,0,.53-.11.75-.09.49-.19.7-.9.11-1,.33.43.72.33.94-.07.49-.17.71-1.51-.12-1.61.11.64.79.55,1.01,0,.51-.09.74-.9.18-.98.41c-.08.23-.31.41-.39.64s.32.63.24.86-.07.49-.14.72,0,.5-.08.73-.14.46-.21.69.26.57.19.81-.44.37-.51.6.06.51,0,.74-.51.37-.56.6-.11.47-.17.7-.81.32-.86.55.3.56.25.8.11.52.07.75.24.54.2.77.36.55.32.78-1,.32-1.04.56-.42.43-.45.67.68.58.64.82-.52.42-.55.66.8.58.77.81-1.23.36-1.25.6,1.01.58.99.82-.46.45-.47.69-.41.46-.42.7.97.53.96.77.07.48.06.72S0,107.96,0,108.2s.56.5.56.74-.25.48-.25.72.89.47.89.71-.43.49-.42.73.47.46.48.7-.39.49-.38.73-.2.49-.19.73.56.44.57.68-.51.52-.49.76.72.42.74.66-.12.49-.09.73-.97.59-.95.83.8.39.83.63-.5.55-.47.79.4.43.43.67.1.47.14.71-.76.62-.73.85,1.13.3,1.17.54-.31.55-.27.78.52.39.57.63-.54.6-.49.84.83.32.88.56-.74.66-.69.89.63.35.68.59.31.42.37.65-.75.69-.7.92,1.31.16,1.37.4-.07.51,0,.75-.72.7-.65.93,1.09.19,1.16.42-.07.52,0,.75-.64.7-.57.93.11.48.18.7.06.49.14.72.73.27.8.5.25.42.32.65.01.5.09.73-.13.56-.06.78-.12.56-.03.79.84.21.92.44.39.37.48.59.43.35.51.57-.05.53.04.75-.53.73-.44.95-.2.6-.11.82.99.12,1.08.34-.31.65-.22.87.26.41.35.63.89.15.98.37.07.49.17.71-.49.73-.39.95,1.08.06,1.17.28-.04.54.05.75.03.51.12.72c.1.22-.34.67-.24.89s.83.15.93.37-.46.74-.36.95,1.26-.06,1.36.16-.73.88-.63,1.09,1.11,0,1.22.21-.85.95-.74,1.17.82.13.92.34.27.4.38.61.32.37.44.58.27.4.38.61-.26.68-.15.89-.22.67-.11.88,1.17-.09,1.28.12-.68.93-.56,1.14.29.39.41.6.31.38.43.58.89.04,1.01.24.63.18.75.39-.31.74-.19.95.21.44.33.64-.17.67-.04.87,1.3-.25,1.43-.05-.86,1.11-.73,1.31,1.33-.28,1.46-.08.29.38.43.58-.28.75-.14.95.58.19.71.39-.2.71-.07.91.95-.07,1.09.13-.83,1.16-.69,1.35.35.34.49.54.73.07.87.27-.02.6.12.8.64.13.78.33.12.51.26.7.87-.05,1.02.14-.72,1.14-.58,1.34.38.32.52.51,1.18-.3,1.33-.11-.16.73-.01.92.42.28.57.46-.16.75-.01.93.96-.16,1.12.02.14.51.29.69-.25.83-.1,1.01.79-.04.95.15.06.58.21.76.7.03.86.21.15.5.31.68-.19.81-.03.99.72,0,.88.19.3.38.46.56-.13.77.03.94,1.03-.29,1.19-.11.54.15.7.33-.49,1.11-.32,1.28,1.13-.4,1.3-.23-.08.74.08.91-.17.83,0,1.01.34.34.51.52.98-.28,1.14-.11.61.07.78.24-.14.82.03.99.17.51.35.68.75-.08.92.08.22.46.4.62-.05.75.13.91.85-.2,1.03-.04.13.57.31.73.13.57.31.73,1.02-.41,1.2-.25-.17.91,0,1.07.38.3.56.46.96-.36,1.14-.2.12.59.31.74-.25,1.03-.07,1.19,1.14-.6,1.32-.44.38.29.56.45.11.62.29.77.63-.01.81.14-.22,1.03-.03,1.18.67-.07.86.08.06.7.25.85.82-.27,1.01-.12-.2,1.05,0,1.19,1.21-.8,1.4-.66-.46,1.41-.27,1.55.61,0,.8.13.67-.1.86.04-.05.89.14,1.03.39.29.58.43.79-.29.99-.15.17.6.36.74.36.32.56.46.59-.01.79.12.47.15.67.29.27.47.47.6.1.74.3.87.69-.18.89-.05.68-.18.88-.05-.12,1.11.08,1.24.44.22.64.34.93-.61,1.14-.49-.06,1.05.14,1.17.92-.62,1.13-.5.26.51.47.63.14.73.35.85.75-.36.96-.24.52.04.73.15.23.59.44.7.39.28.61.39.65-.21.86-.1-.09,1.24.13,1.35.99-.92,1.21-.82.41.24.63.35.38.32.59.42.11.91.32,1.01.6-.17.82-.07.7-.4.92-.3.42.21.64.31.04,1.13.26,1.23.41.28.63.37.56-.11.79-.02.27.62.5.71.62-.25.84-.17.35.43.58.51.64-.34.86-.26.47.11.69.19.45.16.68.23.32.57.55.64.33.55.56.62.45.21.67.28.89-1.27,1.12-1.21.19,1.05.42,1.12.71-.78.95-.72.44.17.68.23.18,1.21.42,1.27.42.32.66.37.45.21.69.27.54-.2.78-.15.66-.79.89-.74.49-.04.73,0,.44.24.67.28.43.3.67.34.47.06.71.1.53-.3.76-.27.3,1.3.54,1.33.61-.92.84-.89.44.36.68.38.51-.24.74-.22.38,1.1.62,1.12.55-.79.79-.78.44.55.68.57.52-.76.76-.75.48-.2.72-.19.44,1.17.68,1.17.49,0,.73,0,.48-.43.72-.43.49.64.73.63.47-.71.71-.72.47-.2.71-.21.46-.33.7-.35.49.26.73.24.46-.22.7-.24.58,1.05.82,1.02.45-.39.68-.42.53.29.76.26.32-1.2.56-1.24.61.82.85.78.39-.59.63-.63.52.16.75.11.58.41.81.36.29-.94.53-.99.64.63.87.57.33-.69.56-.75.42-.27.65-.34.61.41.84.34.22-.95.45-1.02c.23-.07.68.57.91.5s.51,0,.74-.09.18-.95.4-1.03.41-.25.64-.34.38-.33.6-.42.49-.05.71-.14.68.37.9.27.6.16.82.06.35-.4.57-.5.07-.96.28-1.06.48-.11.69-.22.63.17.84.06.5-.09.71-.21.37-.32.58-.44.55-.02.76-.14.37-.33.57-.45.38-.31.58-.44,0-.86.2-.99.27-.44.46-.58.46-.16.66-.3.65.1.85-.05.25-.46.44-.6.31-.37.5-.52.71.13.9-.02.51-.14.69-.29-.29-1.08-.1-1.23.56-.08.74-.24,1.13.55,1.31.39-.29-1.03-.11-1.19.16-.52.34-.69.95.3,1.12.14-.35-1.04-.18-1.21.78.11.95-.06.61-.08.77-.25-.07-.73.1-.9.21-.46.37-.63.71,0,.87-.17.45-.24.61-.41.52-.18.68-.36.39-.3.54-.49-.74-1.27-.58-1.45.37-.3.53-.49.88.11,1.03-.07-.02-.64.13-.82.66-.08.81-.27-.13-.72.02-.9.16-.48.31-.67.2-.45.34-.64,1.23.35,1.37.16-.38-.89-.23-1.09.42-.28.57-.47.77-.02.92-.21-.18-.73-.04-.92-.18-.72-.04-.91.77-.03.91-.22.22-.43.36-.62.39-.3.53-.5.29-.38.43-.57-.27-.78-.13-.97.99.11,1.13-.08.04-.56.18-.75.19-.45.33-.65.19-.45.33-.65-.09-.64.05-.84,1.01.11,1.15-.09.06-.54.19-.74,0-.58.14-.77.96.07,1.09-.13.16-.47.3-.67.05-.54.19-.74-.17-.69-.03-.89,1.08.15,1.22-.05-.43-.87-.29-1.07.77-.06.91-.26-.48-.9-.34-1.1,1.4.36,1.54.16-.66-1.03-.53-1.23.53-.23.66-.43-.21-.72-.07-.93.3-.39.44-.59c.13-.2.86,0,.99-.2s.54-.21.68-.41.04-.55.17-.75-.17-.68-.03-.89.02-.56.15-.76.75-.07.89-.27.61-.17.75-.37-.65-1.01-.52-1.21,1.21.22,1.34.02-.04-.6.09-.8.23-.42.36-.62.13-.48.26-.68.25-.41.38-.61.75-.08.88-.28-.54-.92-.41-1.12.15-.47.28-.67,1.09.13,1.22-.07.25-.41.38-.61-.33-.78-.2-.98.16-.46.29-.67.31-.37.44-.57,1.08.12,1.21-.09-.5-.88-.38-1.08.17-.46.3-.66.86-.03.99-.23-.49-.86-.36-1.07,1.04.07,1.16-.13.1-.5.23-.7.03-.54.15-.75.7-.14.83-.34-.22-.69-.1-.9-.16-.65-.03-.86.86-.05.98-.26-.29-.73-.17-.93.15-.47.27-.68.15-.47.27-.68.43-.31.55-.52.43-.31.55-.52.85-.07.97-.28-.72-.95-.6-1.16.83-.09.95-.3.33-.37.45-.58-.34-.73-.23-.94,1.33.17,1.45-.04-.33-.73-.22-.94.8-.12.92-.33-.53-.82-.42-1.04.81-.12.92-.34.03-.53.14-.74.26-.41.37-.62.42-.33.53-.55-.94-1.01-.84-1.22,1.33.12,1.43-.1.38-.35.48-.57-.24-.65-.14-.87.12-.48.22-.69.68-.22.78-.43-.91-.95-.8-1.17.92-.11,1.02-.33-.04-.55.06-.77.9-.13,1-.35.06-.5.16-.73-.07-.56.02-.78-.54-.75-.45-.98-.02-.53.07-.75.73-.22.82-.44.2-.44.29-.66.76-.22.85-.44-.48-.71-.39-.93.18-.45.27-.67.88-.18.97-.41.25-.42.34-.65-1-.88-.92-1.1.99-.16,1.07-.39.26-.42.34-.65-.41-.65-.33-.88-.02-.51.05-.74.83-.24.9-.47-.82-.76-.75-.99,1.44-.06,1.51-.29-1.19-.86-1.12-1.09.63-.32.69-.55.87-.26.93-.49-.65-.68-.58-.91.05-.48.11-.72,0-.49.07-.73.5-.37.56-.61-.18-.54-.12-.77-.14-.52-.09-.76-.07-.5-.02-.74.39-.41.44-.64.13-.46.18-.7.7-.36.74-.6-.2-.53-.16-.76-.48-.56-.44-.8.16-.46.2-.7.51-.41.54-.65-.54-.55-.51-.79.47-.42.5-.66.7-.41.72-.65-.72-.56-.7-.8.34-.45.36-.69.84-.42.86-.67-.22-.5-.21-.74-.69-.52-.68-.76.07-.48.08-.72-.24-.48-.24-.72.88-.47.88-.71-.27-.49-.28-.73.03-.48.02-.73-.23-.48-.24-.72.06-.48.05-.73-.28-.47-.3-.71.66-.53.64-.77.15-.5.13-.74-1.12-.38-1.15-.61-.4-.43-.43-.67,1.22-.64,1.18-.88-.56-.41-.6-.65-.35-.43-.39-.67.44-.57.39-.8-.36-.42-.41-.66.34-.57.29-.8-.27-.44-.32-.67.29-.57.24-.81-1.35-.15-1.41-.38.19-.54.12-.78.22-.57.15-.8.04-.52-.03-.75-1.16-.12-1.24-.35.62-.72.54-.95.43-.68.35-.9-1.36,0-1.45-.22c-.09-.22-.05-.49-.14-.71s.29-.64.19-.86-.29-.4-.39-.61-.58-.26-.68-.47.22-.63.11-.85-.43-.32-.54-.53.08-.58-.03-.79-.3-.39-.41-.6-.6-.21-.72-.42.35-.75.22-.96-.56-.22-.69-.43.05-.6-.08-.8-.21-.44-.34-.64-.08-.53-.21-.73-.15-.49-.29-.69-1.22.27-1.36.08-.49-.23-.63-.42-.31-.35-.45-.55.14-.71,0-.9-.38-.31-.53-.5.2-.78.05-.97-.18-.48-.33-.67-.36-.34-.51-.52-.92.17-1.08-.01-.15-.51-.31-.68.03-.69-.13-.86-.37-.32-.54-.49-1.1.4-1.27.23.42-1.09.25-1.26-.07-.62-.25-.79-.39-.3-.56-.47-1.06.43-1.24.27-.18-.5-.36-.67-.04-.68-.22-.84-.55-.1-.73-.26-.75.14-.93-.02.03-.78-.16-.93-.66.05-.85-.1-.24-.47-.43-.61.04-.83-.15-.98-.99.5-1.18.36-.23-.48-.42-.63-.38-.29-.57-.44-.34-.34-.54-.48-.5-.12-.7-.26-.11-.68-.31-.82-.78.3-.98.16-.46-.17-.66-.3.34-1.4.14-1.53-.5-.12-.7-.25-.43-.22-.64-.35-1.01.72-1.21.6-.18-.62-.39-.74.02-.98-.19-1.1-.49-.12-.69-.24-.44-.2-.65-.32-.34-.38-.55-.5-.91.67-1.12.56-.22-.59-.44-.71-.18-.7-.39-.81-.99.88-1.2.77-.09-.89-.3-1-.59.12-.81.01-.21-.67-.42-.78-.42-.24-.63-.35-.75.48-.97.38-.39-.28-.61-.38-.03-1.11-.25-1.21-.77.57-.99.48-.07-1.07-.29-1.16-.99,1.12-1.21,1.03-.37-.34-.6-.43-.02-1.24-.24-1.33-.62.26-.84.17-.49-.06-.71-.15-.63.32-.86.24-.52.04-.75-.05-.42-.25-.64-.33-.26-.71-.48-.79-.43-.23-.66-.31-.34-.5-.57-.57-.57.19-.8.11-.32-.58-.55-.65-.65.48-.88.41-.42-.25-.65-.32-.37-.43-.6-.5-.66.56-.89.49-.29-.73-.52-.79-.66.6-.9.53-.38-.43-.61-.49-.33-.65-.56-.71-.65.61-.88.55-.39-.39-.63-.45-.47-.07-.71-.13-.25-1.02-.49-1.07-.72.96-.95.91-.33-.73-.56-.78-.61.56-.85.51-.34-.7-.58-.74-.47-.08-.71-.13-.56.36-.8.32-.33-.84-.56-.89-.52.15-.76.11-.37-.65-.61-.69-.73,1.39-.97,1.35-.38-.58-.62-.62-.53.3-.77.26-.46-.16-.7-.19-.47-.12-.7-.15-.4-.6-.63-.63-.58.68-.82.65-.38-.73-.62-.77-.45-.29-.68-.32-.56.61-.8.58-.45-.22-.69-.25-.51.22-.74.19-.38-.97-.62-1-.45-.33-.69-.35-.52.39-.76.37-.48-.06-.72-.09-.49.12-.73.1-.53.56-.77.54-.42-.81-.66-.83-.53.63-.77.61-.45-.51-.69-.53-.48-.02-.72-.04-.44-.76-.68-.77-.5.36-.74.35-.47-.32-.71-.33-.5.38-.74.37-.5.49-.74.48-.47-.47-.71-.47-.5.74-.74.73-.46-1.22-.7-1.22-.49.83-.74.83-.48-.44-.72-.44-.48-.33-.72-.33-.48-.06-.73-.06-.48.23-.72.24-.48.19-.72.19-.47.69-.71.69-.47.24-.71.25-.52-1.35-.76-1.34-.46.66-.7.67-.48-.05-.72-.04-.47.24-.71.25-.5-.45-.74-.44-.44.73-.69.75-.46.28-.7.29-.51-.45-.75-.43-.53-.74-.77-.73-.45.56-.69.58-.48.04-.72.06-.45.41-.69.43-.5-.23-.74-.21-.48.09-.72.12-.52-.39-.76-.37-.41.76-.65.79-.55-.62-.79-.59-.49,0-.73.02-.37,1.02-.61,1.05-.47.11-.71.14-.63-1.16-.87-1.13-.47.13-.71.16-.36.97-.6,1-.6-.86-.84-.83-.48.08-.72.12-.38.78-.61.82-.4.57-.64.61-.56-.46-.8-.42-.41.5-.65.54-.57-.49-.81-.45-.4.54-.64.58-.68-1.11-.92-1.07-.4.51-.64.55-.34.82-.58.87-.61-.63-.85-.58-.44.26-.68.31-.35.75-.59.8Z"/>
  <g>
    <path class="cls-2" d="M72.35,193.92c-.95,3.39-.37,6.21,1.14,6.96.73.37,1.97.39,2.75-.31.97-.86.71-2.38.67-2.65-.47-2.83-4.38-3.96-4.55-4Z"/>
    <path class="cls-2" d="M23.75,86.77c-3.46.66-5.72,2.42-5.73,4.11,0,.82.53,1.94,1.5,2.33,1.2.48,2.45-.42,2.67-.58,2.32-1.68,1.6-5.68,1.56-5.86Z"/>
    <path class="cls-2" d="M41.94,122.79c-2.07,2.84-2.52,5.68-1.37,6.92.56.6,1.71,1.05,2.68.68,1.21-.47,1.5-1.98,1.55-2.25.55-2.82-2.72-5.24-2.86-5.34Z"/>
    <path class="cls-2" d="M41.78,97.07c-2.77,2.17-3.98,4.78-3.21,6.28.37.73,1.36,1.48,2.4,1.38,1.29-.12,1.98-1.5,2.11-1.74,1.29-2.56-1.18-5.78-1.29-5.92Z"/>
    <path class="cls-2" d="M76.11,97.07c-2.77,2.17-3.98,4.78-3.21,6.28.37.73,1.36,1.48,2.4,1.38,1.29-.12,1.98-1.5,2.11-1.74,1.29-2.56-1.18-5.78-1.29-5.92Z"/>
    <path class="cls-2" d="M124.39,100.39c-1.21,3.31-.86,6.16.59,7.03.7.42,1.94.54,2.77-.09,1.03-.78.9-2.32.87-2.59-.25-2.86-4.06-4.28-4.23-4.34Z"/>
    <path class="cls-2" d="M138.08,76.93c-.25,3.51.88,6.15,2.51,6.59.79.21,2.01-.02,2.63-.85.77-1.04.22-2.47.12-2.73-1.03-2.68-5.08-3-5.26-3.01Z"/>
    <path class="cls-2" d="M15.1,113.55c-2.96,1.91-4.39,4.4-3.76,5.96.31.76,1.22,1.6,2.26,1.59,1.3,0,2.11-1.31,2.26-1.54,1.52-2.43-.66-5.86-.76-6.01Z"/>
    <path class="cls-2" d="M24.72,146.88c-.95,3.39-.37,6.21,1.14,6.96.73.37,1.97.39,2.75-.31.97-.86.71-2.38.67-2.65-.47-2.83-4.38-3.96-4.55-4Z"/>
    <path class="cls-2" d="M46.08,171.08c-.95,3.39-.37,6.21,1.14,6.96.73.37,1.97.39,2.75-.31.97-.86.71-2.38.67-2.65-.47-2.83-4.38-3.96-4.55-4Z"/>
    <path class="cls-2" d="M46.08,146.88c-.95,3.39-.37,6.21,1.14,6.96.73.37,1.97.39,2.75-.31.97-.86.71-2.38.67-2.65-.47-2.83-4.38-3.96-4.55-4Z"/>
    <path class="cls-2" d="M67.44,171.08c-.95,3.39-.37,6.21,1.14,6.96.73.37,1.97.39,2.75-.31.97-.86.71-2.38.67-2.65-.47-2.83-4.38-3.96-4.55-4Z"/>
    <path class="cls-2" d="M76.27,122.38c-2.84,2.08-4.14,4.64-3.42,6.17.35.74,1.31,1.53,2.35,1.46,1.29-.08,2.03-1.43,2.16-1.67,1.38-2.51-.99-5.82-1.1-5.96Z"/>
    <path class="cls-2" d="M79.3,152.7c-1.94,2.94-2.25,5.8-1.04,6.97.59.57,1.76.97,2.71.55,1.18-.53,1.4-2.05,1.44-2.32.41-2.84-2.96-5.1-3.12-5.2Z"/>
    <path class="cls-2" d="M100.76,107.75c2.77,2.17,3.98,4.78,3.21,6.28-.37.73-1.36,1.48-2.4,1.38-1.29-.12-1.98-1.5-2.11-1.74-1.29-2.56,1.18-5.78,1.29-5.92Z"/>
    <path class="cls-2" d="M100.61,133.06c2.84,2.08,4.14,4.64,3.42,6.17-.35.74-1.31,1.53-2.35,1.46-1.29-.08-2.03-1.43-2.16-1.67-1.38-2.51.99-5.82,1.1-5.96Z"/>
    <path class="cls-2" d="M97.57,163.38c1.94,2.94,2.25,5.8,1.04,6.97-.59.57-1.76.97-2.71.55-1.18-.53-1.4-2.05-1.44-2.32-.41-2.84,2.96-5.1,3.12-5.2Z"/>
    <path class="cls-2" d="M128.7,126.54c2.32,2.65,3.02,5.43,1.99,6.77-.5.65-1.61,1.2-2.61.91-1.24-.36-1.67-1.84-1.75-2.1-.8-2.76,2.24-5.46,2.37-5.58Z"/>
    <path class="cls-2" d="M123.84,151.38c2.41,2.57,3.2,5.33,2.21,6.7-.48.67-1.57,1.26-2.58,1-1.26-.32-1.73-1.78-1.82-2.04-.89-2.73,2.05-5.53,2.19-5.65Z"/>
    <path class="cls-2" d="M115.23,180.6c1.35,3.25,1.13,6.11-.27,7.05-.68.45-1.91.63-2.77.03-1.06-.74-1-2.27-.99-2.55.12-2.87,3.86-4.46,4.03-4.53Z"/>
    <path class="cls-2" d="M115.23,195.28c1.35,3.25,1.13,6.11-.27,7.05-.68.45-1.91.63-2.77.03-1.06-.74-1-2.27-.99-2.55.12-2.87,3.86-4.46,4.03-4.53Z"/>
    <path class="cls-2" d="M146.84,93.04c-1.21,3.31-.86,6.16.59,7.03.7.42,1.94.54,2.77-.09,1.03-.78.9-2.32.87-2.59-.25-2.86-4.06-4.28-4.23-4.34Z"/>
    <path class="cls-2" d="M151.15,119.19c2.32,2.65,3.02,5.43,1.99,6.77-.5.65-1.61,1.2-2.61.91-1.24-.36-1.67-1.84-1.75-2.1-.8-2.76,2.24-5.46,2.37-5.58Z"/>
    <path class="cls-2" d="M146.29,144.03c2.41,2.57,3.2,5.33,2.21,6.7-.48.67-1.57,1.26-2.58,1-1.26-.32-1.73-1.78-1.82-2.04-.89-2.73,2.05-5.53,2.19-5.65Z"/>
    <path class="cls-2" d="M137.68,172.26c1.35,3.25,1.13,6.11-.27,7.05-.68.45-1.91.63-2.77.03-1.06-.74-1-2.27-.99-2.55.12-2.87,3.86-4.46,4.03-4.53Z"/>
    <path class="cls-2" d="M92.27,182.26c-1.94,2.94-2.25,5.8-1.04,6.97.59.57,1.76.97,2.71.55,1.18-.53,1.4-2.05,1.44-2.32.41-2.84-2.96-5.1-3.12-5.2Z"/>
    <path class="cls-2" d="M92.27,195.28c-1.94,2.94-2.25,5.8-1.04,6.97.59.57,1.76.97,2.71.55,1.18-.53,1.4-2.05,1.44-2.32.41-2.84-2.96-5.1-3.12-5.2Z"/>
  </g>
  <path class="cls-1" d="M62.88,38.18l-15.07-31.94s10.07-9.44,19.36-5.1l12.62,39S85.04,1.96,122.81,6.97c0,0,5.98,14.53-8.77,24.25,0,0,20.46-8.58,29.72,1.74,0,0-5.24,30.53-39.27,26.1,0,0,14.13,20.86,3.7,24.76s-31.1-8.71-31.1-8.71c0,0-18.3,21.48-28.59,17.85-10.28-3.62,2.27-27.96,7.26-29.08,0,0-36.36-3.24-33.93-13.66,0,0,12.46-15.09,41.05-12.03Z"/>
  <g>
    <path class="cls-3" d="M166.99,148.04c9.82-4.14,18.5-12.37,24.99-20.48.9-1.13,1.62-2.2,2.41-3.37.25-.81.27-.77.05.1.51-.61.97-1.26,1.38-1.95,1.3-1.97,2.47-4.47,3.68-6.71,2.59-4.78,5.21-10.46,5.86-15.95.2-1.69-1.07-3.2-2.34-4.09-1.08-.75-2.13-.99-3.44-1.03-4.47-.15-5.75,5.11-3.35,8.08l.23.28c3.84,4.73,10.5-2,6.69-6.69l-.23-.28-3.35,8.08-1.34-.26-2.34-4.09c.4-3.38-.44.73-.66,1.48-.4,1.34-.74,2.54-1.3,3.82-.95,2.17-1.84,4.31-2.92,6.39-1.27,2.44-2.76,4.69-4.13,7.04-.4.68-.93,2.04-1.41,2.67,1.08-1.42-1.48,1.18-1.76,1.58-.31.5-.62,1.01-.92,1.51.64-.54.62-.57-.07-.11-.83.85-1.81,1.53-2.58,2.46,0,0-2.3,2.79-1,1.49-.77.78-1.93,1.47-2.79,2.22-3.25,2.86-7.65,6.88-11.87,8.66-5.53,2.33-3.1,11.49,2.52,9.13h0Z"/>
    <path class="cls-3" d="M202.9,105.38c2.88-.41,5.79-.65,8.68-.99,5.88-.69,6.25-9.54,0-9.46-3.38.04-6.79.62-10.16.58l4.09,7.12c1.58-2.88,3.85-5.68,6.06-8.11,2.9-3.2.13-9.72-4.6-7.91-4.48,1.71-8.74,4.33-11.83,8.06l8.08,3.35c-.25-2.53-.56-5.54.93-7.73,2.74-4.03-2.56-8.75-6.47-6.47-5.07,2.94-6.45,9.17-4.28,14.5l5.82-5.82c-1.61-.42-2.43-2.06-2.76-3.51-1.33-5.94-10.46-3.43-9.13,2.52,1.04,4.64,4.7,8.9,9.37,10.12,3.16.83,7.24-2.33,5.82-5.82-.37-.92-1.27-3.11-.07-3.81l-6.47-6.47c-2.49,3.67-2.64,8.24-2.23,12.51.35,3.62,5.2,6.83,8.08,3.35,1.98-2.4,4.73-4.51,7.65-5.63l-4.6-7.91c-2.75,3.04-5.56,6.43-7.54,10.03-1.73,3.15.44,7.08,4.09,7.12,3.38.04,6.78-.55,10.16-.58v-9.46c-3.73.44-7.47.79-11.19,1.33-6,.87-3.45,9.99,2.52,9.13h0Z"/>
  </g>
  <g>
    <path class="cls-3" d="M12.49,151.26c-1.4,3.51-1.87,7.89-2.47,11.62-.29,1.81-.56,3.6-.68,5.4-.04.7.43,1.79.06.49l-.17,1.26c.46-.73.57-.84.32-.33-.46,3.08-.97,6.62-.7,9.82.02.27.57,3.28.5,2.07s-.27,2-.25,1.5c-.06,1.79.41,3.15,1.21,4.72l-.48-3.65c-.24,1.73-.37,3.19.01,4.92.07.31.95,3.58.3.47.48,2.29.97,4.79,1.43,7.07.2.97.07,2.01.32,2.98.79,3.11.23-.31.8,2.25.33,1.46,2.14,4.77,1.98,6.06l1.39-3.35,1.17-.67c2,1.52,3.99,3.04,5.99,4.56v-.25c.04-6.09-9.43-6.1-9.46,0v.25c-.02,3.27,3.02,5.13,5.99,4.56,6.11-1.17,3.86-6.85,2.69-10.7-1.39-4.57-1.62-6.82-2.53-10.16.32,1.17-.25-2.27-.26-2.36-.12-1.12-.44-2.16-.62-3.25-.32-1.91.5,2.43.09-1.13-.12-1.07-.78-1.97-.94-2.96.54,3.46.05-2.81.03-3.47-.06-2.69.26-5.06-.15-7.87l-.48,3.65c.68-1.58,1.11-2.92,1.19-4.65.04-.94-.22-2.22-.12-3.12-.19,1.66.37-.44.51-1.04.95-3.95.93-8.4,2.44-12.18,2.26-5.66-6.89-8.11-9.13-2.52h0Z"/>
    <path class="cls-3" d="M17.27,211.51c2.49,2.22,4.82,4.58,7.25,6.87l6.69-6.69c-2.48-2.31-5.38-4.21-7.8-6.58-3.01-2.94-7.92-.72-8.08,3.35-.15,3.82,0,7.5.05,11.3l8.82-2.39c-1.79-3.29-2.65-6.34-3.29-10s-5.53-4.3-7.91-2.09c-3.35,3.11-5.19,6.74-5.91,11.22l8.65-1.13c-.29-.57,1.6-1.89,2.13-2.29,3.08-2.36,3.14-7.46-1.13-8.65-5-1.39-9.62-.2-13.57,3.13-4.66,3.93,2.06,10.59,6.69,6.69,1.3-1.1,2.83-1.12,4.37-.69l-1.13-8.65c-5.02,3.85-8.78,8.81-5.52,15.24,1.74,3.43,8.01,2.9,8.65-1.13.47-2.96,1.23-4.96,3.47-7.05l-7.91-2.09c.77,4.47,2.06,8.25,4.24,12.26s8.89,2.25,8.82-2.39c-.06-3.8-.2-7.49-.05-11.3l-8.08,3.35c2.43,2.37,5.32,4.26,7.8,6.58,4.44,4.15,11.13-2.49,6.69-6.69-2.42-2.29-4.76-4.65-7.25-6.87-4.53-4.05-11.25,2.63-6.69,6.69h0Z"/>
  </g>
</svg>