<svg width="84" height="77" viewBox="0 0 84 77" fill="none" xmlns="http://www.w3.org/2000/svg">
<path d="M30.5808 11.5192C34.7125 9.78403 39.6631 11.2465 41.3869 15.3506C42.1485 17.1641 42.085 19.1051 41.4242 20.829C41.7262 20.8624 42.0318 20.8206 42.3101 20.7038L50.1632 17.4056C53.5586 15.9798 57.4643 17.575 58.8904 20.9704L61.8909 28.1149C62.0806 28.5665 62.397 28.9464 62.7991 29.2132C63.5298 27.5103 64.8495 26.0748 66.6726 25.3091L67.3407 25.0285L67.4097 25.0567C71.3147 23.8802 75.4529 26.2539 77.0871 30.1449C78.8221 34.2767 77.3589 39.2267 73.2544 40.9505C71.3931 41.732 69.4056 41.6499 67.6526 40.9411C67.5949 41.3719 67.6501 41.8127 67.8214 42.2207L71.1169 50.0675C72.543 53.463 70.9479 57.3695 67.5525 58.7956L60.9797 61.556C59.2039 62.3018 57.2123 62.3115 55.4307 61.5838L55.3169 61.5374L55.3165 61.5365C53.7066 60.8776 53.1025 59.0345 53.8159 57.5624L53.8168 57.562C54.3361 56.4912 54.3928 55.3425 53.9683 54.3314C53.1419 52.3637 50.473 51.2321 47.7467 52.3771C45.0187 53.523 43.9561 56.2237 44.7817 58.1896C45.1874 59.1552 45.9925 59.8897 47.0613 60.2858L47.2782 60.361L47.2855 60.3633C48.8407 60.8647 49.7891 62.5903 49.1172 64.2354C48.3891 66.0179 46.9814 67.4349 45.2123 68.178L38.4639 71.0122C35.0685 72.4382 31.1625 70.8421 29.7364 67.4465L26.4431 59.6051C26.2695 59.1918 25.9909 58.8432 25.642 58.5826C24.9179 60.3229 23.5913 61.808 21.7293 62.59C17.6252 64.3135 13.0668 61.8926 11.3314 57.761C9.59625 53.6294 11.0586 48.6788 15.1628 46.9549C16.9836 46.1902 18.9325 46.2572 20.6613 46.9251C20.7523 46.4499 20.7024 45.9537 20.5117 45.4997L17.5112 38.3552C16.0854 34.9597 17.6816 31.0536 21.0769 29.6276L29.111 26.2535C29.3486 26.1536 29.557 26.0035 29.728 25.8185C28.0009 25.0917 26.5293 23.7683 25.7518 21.9171C24.0283 17.8128 26.4492 13.2545 30.5808 11.5192Z" stroke="#00B3F0" stroke-width="3.5"/>
</svg>
