<svg width="177" height="92" viewBox="0 0 177 92" fill="none" xmlns="http://www.w3.org/2000/svg">
<path d="M152.962 1H28.2534C15.804 1 5.70152 9.47 5.70152 19.92V54.9C5.70152 69.29 5.60621 77.58 1.37699 85.41C-0.0764249 88.1 2.92572 90.99 6.32101 90.22C15.5657 88.12 24.2624 84.33 31.6486 79.22H152.962C165.411 79.22 175.501 70.75 175.501 60.3V19.92C175.501 9.47 165.411 1 152.962 1Z" fill="white" stroke="#1D1D1B" stroke-width="2" stroke-miterlimit="10"/>
<path d="M35.7033 42.587H32.6218L32.8988 32.657H35.4333L35.7033 42.587ZM34.1661 28.2251C34.6046 28.2251 34.9901 28.3867 35.3225 28.7099C35.6549 29.033 35.8234 29.4254 35.828 29.8871C35.8234 30.3395 35.6549 30.7273 35.3225 31.0504C34.9901 31.3736 34.6046 31.5352 34.1661 31.5352C33.709 31.5352 33.3166 31.3736 32.9889 31.0504C32.6611 30.7273 32.4995 30.3395 32.5041 29.8871C32.4995 29.5778 32.5711 29.2985 32.7188 29.0492C32.8711 28.7999 33.0743 28.6014 33.3282 28.4537C33.5821 28.3013 33.8614 28.2251 34.1661 28.2251ZM35.9032 27.2903V24.8182H47.5506V27.2903H43.2088V39H40.245V27.2903H35.9032ZM54.0069 34.4712V28.3636H56.9568V39H54.1246V37.068H54.0138C53.7738 37.6912 53.3744 38.1921 52.8158 38.5707C52.2619 38.9492 51.5856 39.1385 50.7869 39.1385C50.076 39.1385 49.4504 38.9769 48.9103 38.6538C48.3702 38.3306 47.9478 37.8713 47.6431 37.2757C47.343 36.6802 47.1907 35.967 47.186 35.136V28.3636H50.136V34.6097C50.1406 35.2376 50.3091 35.7338 50.6415 36.0985C50.9739 36.4632 51.4194 36.6456 51.978 36.6456C52.3334 36.6456 52.6658 36.5648 52.9751 36.4032C53.2844 36.237 53.5337 35.9924 53.723 35.6692C53.9169 35.3461 54.0115 34.9467 54.0069 34.4712ZM51.0223 26.9925L52.4904 23.8418H55.2187L53.1067 26.9925H51.0223ZM66.189 39.1731C65.3811 39.1731 64.6494 38.9654 63.9939 38.5499C63.3429 38.1298 62.8259 37.5135 62.4427 36.701C62.0642 35.8839 61.8749 34.8821 61.8749 33.6957C61.8749 32.4769 62.0711 31.4636 62.4635 30.6557C62.8559 29.8432 63.3776 29.2362 64.0285 28.8345C64.684 28.4283 65.4019 28.2251 66.1821 28.2251C66.7776 28.2251 67.2739 28.3267 67.6709 28.5298C68.0725 28.7283 68.3957 28.9776 68.6403 29.2777C68.8896 29.5732 69.0789 29.864 69.2082 30.1502H69.2982V24.8182H72.2412V39H69.3328V37.2965H69.2082C69.0697 37.592 68.8735 37.8851 68.6196 38.176C68.3703 38.4622 68.0448 38.6999 67.6432 38.8892C67.2462 39.0785 66.7614 39.1731 66.189 39.1731ZM67.1238 36.8256C67.5993 36.8256 68.001 36.6964 68.3287 36.4379C68.6611 36.1747 68.915 35.8077 69.0905 35.3368C69.2705 34.8659 69.3605 34.3143 69.3605 33.6818C69.3605 33.0494 69.2728 32.5 69.0974 32.0337C68.9219 31.5675 68.668 31.2074 68.3357 30.9535C68.0033 30.6996 67.5993 30.5726 67.1238 30.5726C66.6391 30.5726 66.2305 30.7042 65.8982 30.9673C65.5658 31.2305 65.3142 31.5952 65.1434 32.0614C64.9726 32.5277 64.8871 33.0678 64.8871 33.6818C64.8871 34.3004 64.9726 34.8475 65.1434 35.323C65.3188 35.7939 65.5704 36.1632 65.8982 36.4309C66.2305 36.6941 66.6391 36.8256 67.1238 36.8256ZM78.7339 39.2077C77.6398 39.2077 76.698 38.9862 75.9086 38.543C75.1238 38.0952 74.519 37.4627 74.0943 36.6456C73.6696 35.8239 73.4572 34.8521 73.4572 33.7303C73.4572 32.6362 73.6696 31.676 74.0943 30.8496C74.519 30.0233 75.1169 29.3793 75.8878 28.9176C76.6634 28.456 77.5728 28.2251 78.6162 28.2251C79.3179 28.2251 79.9711 28.3382 80.5759 28.5645C81.1852 28.786 81.7161 29.1207 82.1685 29.5685C82.6256 30.0163 82.981 30.5795 83.2349 31.2582C83.4888 31.9322 83.6158 32.7216 83.6158 33.6264V34.4366H74.6344V32.6085H80.839C80.839 32.1838 80.7467 31.8075 80.562 31.4798C80.3773 31.152 80.1211 30.8958 79.7934 30.7111C79.4702 30.5218 79.094 30.4272 78.6646 30.4272C78.2168 30.4272 77.8198 30.5311 77.4736 30.7388C77.132 30.9419 76.8642 31.2166 76.6703 31.5629C76.4764 31.9045 76.3772 32.2853 76.3725 32.7054V34.4435C76.3725 34.9698 76.4695 35.4245 76.6634 35.8077C76.8619 36.1909 77.1412 36.4863 77.5013 36.6941C77.8614 36.9018 78.2884 37.0057 78.7823 37.0057C79.1101 37.0057 79.4102 36.9595 79.6826 36.8672C79.9549 36.7749 80.1881 36.6364 80.382 36.4517C80.5759 36.267 80.7236 36.0408 80.8251 35.7731L83.5535 35.9531C83.415 36.6087 83.1311 37.1811 82.7017 37.6705C82.277 38.1552 81.7277 38.5337 81.0537 38.8061C80.3843 39.0739 79.611 39.2077 78.7339 39.2077ZM89.5666 39.2077C88.4771 39.2077 87.54 38.9769 86.7552 38.5153C85.975 38.049 85.3749 37.4027 84.9548 36.5763C84.5393 35.75 84.3315 34.799 84.3315 33.7234C84.3315 32.6339 84.5416 31.6783 84.9617 30.8565C85.3864 30.0302 85.9889 29.3862 86.769 28.9245C87.5492 28.4583 88.4771 28.2251 89.5528 28.2251C90.4807 28.2251 91.2932 28.3936 91.9903 28.7306C92.6874 29.0676 93.239 29.5408 93.6453 30.1502C94.0515 30.7596 94.2754 31.4751 94.317 32.2969H91.5332C91.4548 31.766 91.247 31.339 90.91 31.0158C90.5776 30.688 90.1414 30.5241 89.6012 30.5241C89.1442 30.5241 88.7449 30.6488 88.4033 30.8981C88.0663 31.1428 87.8031 31.5005 87.6139 31.9714C87.4246 32.4423 87.3299 33.0124 87.3299 33.6818C87.3299 34.3604 87.4223 34.9375 87.6069 35.413C87.7962 35.8885 88.0617 36.2509 88.4033 36.5002C88.7449 36.7495 89.1442 36.8741 89.6012 36.8741C89.9383 36.8741 90.2406 36.8049 90.5084 36.6664C90.7808 36.5279 91.0047 36.3271 91.1801 36.0639C91.3601 35.7962 91.4778 35.4753 91.5332 35.1014H94.317C94.2708 35.9139 94.0492 36.6294 93.6522 37.248C93.2598 37.862 92.7174 38.3422 92.0249 38.6884C91.3324 39.0346 90.513 39.2077 89.5666 39.2077ZM95.4257 39V28.3636H98.3756V39H95.4257ZM96.9076 26.9925C96.469 26.9925 96.0928 26.8471 95.7789 26.5563C95.4696 26.2608 95.3149 25.9077 95.3149 25.4968C95.3149 25.0906 95.4696 24.742 95.7789 24.4512C96.0928 24.1557 96.469 24.008 96.9076 24.008C97.3462 24.008 97.7201 24.1557 98.0294 24.4512C98.3433 24.742 98.5003 25.0906 98.5003 25.4968C98.5003 25.9077 98.3433 26.2608 98.0294 26.5563C97.7201 26.8471 97.3462 26.9925 96.9076 26.9925ZM103.878 39.1731C103.07 39.1731 102.338 38.9654 101.683 38.5499C101.032 38.1298 100.515 37.5135 100.132 36.701C99.7533 35.8839 99.564 34.8821 99.564 33.6957C99.564 32.4769 99.7602 31.4636 100.153 30.6557C100.545 29.8432 101.067 29.2362 101.718 28.8345C102.373 28.4283 103.091 28.2251 103.871 28.2251C104.467 28.2251 104.963 28.3267 105.36 28.5298C105.762 28.7283 106.085 28.9776 106.329 29.2777C106.579 29.5732 106.768 29.864 106.897 30.1502H106.987V24.8182H109.93V39H107.022V37.2965H106.897C106.759 37.592 106.563 37.8851 106.309 38.176C106.059 38.4622 105.734 38.6999 105.332 38.8892C104.935 39.0785 104.451 39.1731 103.878 39.1731ZM104.813 36.8256C105.288 36.8256 105.69 36.6964 106.018 36.4379C106.35 36.1747 106.604 35.8077 106.78 35.3368C106.96 34.8659 107.05 34.3143 107.05 33.6818C107.05 33.0494 106.962 32.5 106.786 32.0337C106.611 31.5675 106.357 31.2074 106.025 30.9535C105.692 30.6996 105.288 30.5726 104.813 30.5726C104.328 30.5726 103.92 30.7042 103.587 30.9673C103.255 31.2305 103.003 31.5952 102.832 32.0614C102.662 32.5277 102.576 33.0678 102.576 33.6818C102.576 34.3004 102.662 34.8475 102.832 35.323C103.008 35.7939 103.259 36.1632 103.587 36.4309C103.92 36.6941 104.328 36.8256 104.813 36.8256ZM116.423 39.2077C115.329 39.2077 114.387 38.9862 113.598 38.543C112.813 38.0952 112.208 37.4627 111.783 36.6456C111.359 35.8239 111.146 34.8521 111.146 33.7303C111.146 32.6362 111.359 31.676 111.783 30.8496C112.208 30.0233 112.806 29.3793 113.577 28.9176C114.352 28.456 115.262 28.2251 116.305 28.2251C117.007 28.2251 117.66 28.3382 118.265 28.5645C118.874 28.786 119.405 29.1207 119.858 29.5685C120.315 30.0163 120.67 30.5795 120.924 31.2582C121.178 31.9322 121.305 32.7216 121.305 33.6264V34.4366H112.324V32.6085H118.528C118.528 32.1838 118.436 31.8075 118.251 31.4798C118.066 31.152 117.81 30.8958 117.482 30.7111C117.159 30.5218 116.783 30.4272 116.354 30.4272C115.906 30.4272 115.509 30.5311 115.163 30.7388C114.821 30.9419 114.553 31.2166 114.359 31.5629C114.166 31.9045 114.066 32.2853 114.062 32.7054V34.4435C114.062 34.9698 114.159 35.4245 114.352 35.8077C114.551 36.1909 114.83 36.4863 115.19 36.6941C115.55 36.9018 115.977 37.0057 116.471 37.0057C116.799 37.0057 117.099 36.9595 117.372 36.8672C117.644 36.7749 117.877 36.6364 118.071 36.4517C118.265 36.267 118.413 36.0408 118.514 35.7731L121.243 35.9531C121.104 36.6087 120.82 37.1811 120.391 37.6705C119.966 38.1552 119.417 38.5337 118.743 38.8061C118.073 39.0739 117.3 39.2077 116.423 39.2077ZM131.3 31.3967L128.599 31.5629C128.553 31.332 128.454 31.1243 128.301 30.9396C128.149 30.7504 127.948 30.6003 127.699 30.4895C127.454 30.3741 127.161 30.3164 126.819 30.3164C126.362 30.3164 125.977 30.4134 125.663 30.6072C125.349 30.7965 125.192 31.0504 125.192 31.369C125.192 31.6229 125.294 31.8375 125.497 32.013C125.7 32.1884 126.048 32.3292 126.542 32.4354L128.468 32.8232C129.502 33.0355 130.273 33.3771 130.78 33.848C131.288 34.3189 131.542 34.9375 131.542 35.7038C131.542 36.4009 131.337 37.0126 130.926 37.5389C130.52 38.0652 129.961 38.476 129.25 38.7715C128.544 39.0623 127.729 39.2077 126.806 39.2077C125.398 39.2077 124.276 38.9146 123.44 38.3283C122.609 37.7374 122.122 36.9341 121.979 35.9185L124.881 35.7662C124.968 36.1955 125.181 36.5233 125.518 36.7495C125.855 36.9711 126.286 37.0819 126.813 37.0819C127.33 37.0819 127.745 36.9826 128.059 36.7841C128.378 36.581 128.539 36.3201 128.544 36.0016C128.539 35.7338 128.426 35.5146 128.204 35.3438C127.983 35.1683 127.641 35.0344 127.18 34.9421L125.338 34.5751C124.299 34.3674 123.526 34.0073 123.018 33.4949C122.515 32.9824 122.263 32.3292 122.263 31.5352C122.263 30.8519 122.448 30.2633 122.817 29.7694C123.191 29.2754 123.715 28.8945 124.389 28.6268C125.067 28.359 125.862 28.2251 126.771 28.2251C128.114 28.2251 129.172 28.5091 129.942 29.0769C130.718 29.6447 131.17 30.418 131.3 31.3967ZM36.9844 59.2077C35.8949 59.2077 34.9578 58.9769 34.173 58.5153C33.3928 58.049 32.7927 57.4027 32.3726 56.5763C31.9571 55.75 31.7493 54.799 31.7493 53.7234C31.7493 52.6339 31.9594 51.6783 32.3795 50.8565C32.8042 50.0302 33.4066 49.3862 34.1868 48.9245C34.967 48.4583 35.8949 48.2251 36.9706 48.2251C37.8985 48.2251 38.711 48.3936 39.4081 48.7306C40.1052 49.0676 40.6568 49.5408 41.0631 50.1502C41.4693 50.7596 41.6932 51.4751 41.7348 52.2969H38.951C38.8726 51.766 38.6648 51.339 38.3278 51.0158C37.9954 50.688 37.5592 50.5241 37.019 50.5241C36.562 50.5241 36.1627 50.6488 35.8211 50.8981C35.4841 51.1428 35.2209 51.5005 35.0316 51.9714C34.8424 52.4423 34.7477 53.0124 34.7477 53.6818C34.7477 54.3604 34.8401 54.9375 35.0247 55.413C35.214 55.8885 35.4794 56.2509 35.8211 56.5002C36.1627 56.7495 36.562 56.8741 37.019 56.8741C37.356 56.8741 37.6584 56.8049 37.9262 56.6664C38.1986 56.5279 38.4225 56.3271 38.5979 56.0639C38.7779 55.7962 38.8956 55.4753 38.951 55.1014H41.7348C41.6886 55.9139 41.467 56.6294 41.07 57.248C40.6776 57.862 40.1352 58.3422 39.4427 58.6884C38.7502 59.0346 37.9308 59.2077 36.9844 59.2077ZM47.6492 59.2077C46.5736 59.2077 45.6434 58.9792 44.8586 58.5222C44.0784 58.0605 43.4759 57.4189 43.0512 56.5971C42.6265 55.7708 42.4142 54.8129 42.4142 53.7234C42.4142 52.6246 42.6265 51.6644 43.0512 50.8427C43.4759 50.0163 44.0784 49.3746 44.8586 48.9176C45.6434 48.456 46.5736 48.2251 47.6492 48.2251C48.7249 48.2251 49.6528 48.456 50.433 48.9176C51.2178 49.3746 51.8225 50.0163 52.2473 50.8427C52.672 51.6644 52.8843 52.6246 52.8843 53.7234C52.8843 54.8129 52.672 55.7708 52.2473 56.5971C51.8225 57.4189 51.2178 58.0605 50.433 58.5222C49.6528 58.9792 48.7249 59.2077 47.6492 59.2077ZM47.6631 56.9226C48.1524 56.9226 48.561 56.7841 48.8888 56.5071C49.2165 56.2255 49.4635 55.8423 49.6297 55.3576C49.8005 54.8729 49.8859 54.3212 49.8859 53.7026C49.8859 53.084 49.8005 52.5323 49.6297 52.0476C49.4635 51.5629 49.2165 51.1797 48.8888 50.8981C48.561 50.6165 48.1524 50.4757 47.6631 50.4757C47.1691 50.4757 46.7536 50.6165 46.4166 50.8981C46.0843 51.1797 45.8327 51.5629 45.6619 52.0476C45.4957 52.5323 45.4126 53.084 45.4126 53.7026C45.4126 54.3212 45.4957 54.8729 45.6619 55.3576C45.8327 55.8423 46.0843 56.2255 46.4166 56.5071C46.7536 56.7841 47.1691 56.9226 47.6631 56.9226ZM46.5898 46.9925L48.0578 43.8418H50.7861L48.6741 46.9925H46.5898ZM54.0225 59V48.3636H56.8339V50.2402H56.9586C57.1801 49.617 57.5495 49.1254 58.0665 48.7653C58.5836 48.4052 59.2022 48.2251 59.9223 48.2251C60.6517 48.2251 61.2727 48.4075 61.7851 48.7722C62.2975 49.1323 62.6391 49.6216 62.8099 50.2402H62.9207C63.1377 49.6309 63.5301 49.1438 64.0979 48.7791C64.6704 48.4098 65.3467 48.2251 66.1269 48.2251C67.1194 48.2251 67.925 48.5414 68.5436 49.1738C69.1668 49.8017 69.4784 50.6926 69.4784 51.8468V59H66.5354V52.4284C66.5354 51.8375 66.3785 51.3944 66.0646 51.0989C65.7506 50.8034 65.3582 50.6557 64.8874 50.6557C64.3518 50.6557 63.9341 50.8265 63.634 51.1681C63.3339 51.5051 63.1839 51.9506 63.1839 52.5046V59H60.324V52.3661C60.324 51.8445 60.1739 51.429 59.8739 51.1197C59.5784 50.8104 59.1883 50.6557 58.7036 50.6557C58.3758 50.6557 58.0804 50.7388 57.8172 50.905C57.5587 51.0666 57.3533 51.2951 57.2009 51.5906C57.0486 51.8814 56.9724 52.223 56.9724 52.6154V59H54.0225ZM75.8344 59.2077C74.7587 59.2077 73.8285 58.9792 73.0437 58.5222C72.2635 58.0605 71.6611 57.4189 71.2363 56.5971C70.8116 55.7708 70.5993 54.8129 70.5993 53.7234C70.5993 52.6246 70.8116 51.6644 71.2363 50.8427C71.6611 50.0163 72.2635 49.3746 73.0437 48.9176C73.8285 48.456 74.7587 48.2251 75.8344 48.2251C76.91 48.2251 77.8379 48.456 78.6181 48.9176C79.4029 49.3746 80.0077 50.0163 80.4324 50.8427C80.8571 51.6644 81.0694 52.6246 81.0694 53.7234C81.0694 54.8129 80.8571 55.7708 80.4324 56.5971C80.0077 57.4189 79.4029 58.0605 78.6181 58.5222C77.8379 58.9792 76.91 59.2077 75.8344 59.2077ZM75.8482 56.9226C76.3376 56.9226 76.7461 56.7841 77.0739 56.5071C77.4017 56.2255 77.6486 55.8423 77.8148 55.3576C77.9856 54.8729 78.071 54.3212 78.071 53.7026C78.071 53.084 77.9856 52.5323 77.8148 52.0476C77.6486 51.5629 77.4017 51.1797 77.0739 50.8981C76.7461 50.6165 76.3376 50.4757 75.8482 50.4757C75.3542 50.4757 74.9388 50.6165 74.6018 50.8981C74.2694 51.1797 74.0178 51.5629 73.847 52.0476C73.6808 52.5323 73.5977 53.084 73.5977 53.7026C73.5977 54.3212 73.6808 54.8729 73.847 55.3576C74.0178 55.8423 74.2694 56.2255 74.6018 56.5071C74.9388 56.7841 75.3542 56.9226 75.8482 56.9226ZM85.9408 59V48.3636H88.7522V50.2402H88.8769C89.0984 49.617 89.4678 49.1254 89.9848 48.7653C90.5019 48.4052 91.1205 48.2251 91.8406 48.2251C92.57 48.2251 93.191 48.4075 93.7034 48.7722C94.2158 49.1323 94.5574 49.6216 94.7282 50.2402H94.839C95.056 49.6309 95.4484 49.1438 96.0162 48.7791C96.5887 48.4098 97.265 48.2251 98.0452 48.2251C99.0377 48.2251 99.8433 48.5414 100.462 49.1738C101.085 49.8017 101.397 50.6926 101.397 51.8468V59H98.4537V52.4284C98.4537 51.8375 98.2968 51.3944 97.9829 51.0989C97.6689 50.8034 97.2765 50.6557 96.8057 50.6557C96.2701 50.6557 95.8524 50.8265 95.5523 51.1681C95.2522 51.5051 95.1022 51.9506 95.1022 52.5046V59H92.2423V52.3661C92.2423 51.8445 92.0922 51.429 91.7922 51.1197C91.4967 50.8104 91.1066 50.6557 90.6219 50.6557C90.2941 50.6557 89.9987 50.7388 89.7355 50.905C89.477 51.0666 89.2716 51.2951 89.1192 51.5906C88.9669 51.8814 88.8907 52.223 88.8907 52.6154V59H85.9408ZM107.794 59.2077C106.7 59.2077 105.758 58.9862 104.969 58.543C104.184 58.0952 103.579 57.4627 103.155 56.6456C102.73 55.8239 102.518 54.8521 102.518 53.7303C102.518 52.6362 102.73 51.676 103.155 50.8496C103.579 50.0233 104.177 49.3793 104.948 48.9176C105.724 48.456 106.633 48.2251 107.676 48.2251C108.378 48.2251 109.031 48.3382 109.636 48.5645C110.246 48.786 110.776 49.1207 111.229 49.5685C111.686 50.0163 112.041 50.5795 112.295 51.2582C112.549 51.9322 112.676 52.7216 112.676 53.6264V54.4366H103.695V52.6085H109.899C109.899 52.1838 109.807 51.8075 109.622 51.4798C109.438 51.152 109.181 50.8958 108.854 50.7111C108.531 50.5218 108.154 50.4272 107.725 50.4272C107.277 50.4272 106.88 50.5311 106.534 50.7388C106.192 50.9419 105.925 51.2166 105.731 51.5629C105.537 51.9045 105.437 52.2853 105.433 52.7054V54.4435C105.433 54.9698 105.53 55.4245 105.724 55.8077C105.922 56.1909 106.202 56.4863 106.562 56.6941C106.922 56.9018 107.349 57.0057 107.843 57.0057C108.17 57.0057 108.471 56.9595 108.743 56.8672C109.015 56.7749 109.248 56.6364 109.442 56.4517C109.636 56.267 109.784 56.0408 109.885 55.7731L112.614 55.9531C112.475 56.6087 112.191 57.1811 111.762 57.6705C111.337 58.1552 110.788 58.5337 110.114 58.8061C109.445 59.0739 108.671 59.2077 107.794 59.2077ZM127.471 48.3636L123.752 59H120.428L116.71 48.3636H119.826L122.035 55.9739H122.145L124.348 48.3636H127.471ZM132.705 59.2077C131.611 59.2077 130.669 58.9862 129.879 58.543C129.095 58.0952 128.49 57.4627 128.065 56.6456C127.64 55.8239 127.428 54.8521 127.428 53.7303C127.428 52.6362 127.64 51.676 128.065 50.8496C128.49 50.0233 129.088 49.3793 129.859 48.9176C130.634 48.456 131.544 48.2251 132.587 48.2251C133.289 48.2251 133.942 48.3382 134.547 48.5645C135.156 48.786 135.687 49.1207 136.139 49.5685C136.596 50.0163 136.952 50.5795 137.206 51.2582C137.46 51.9322 137.587 52.7216 137.587 53.6264V54.4366H128.605V52.6085H134.81C134.81 52.1838 134.717 51.8075 134.533 51.4798C134.348 51.152 134.092 50.8958 133.764 50.7111C133.441 50.5218 133.065 50.4272 132.635 50.4272C132.188 50.4272 131.791 50.5311 131.444 50.7388C131.103 50.9419 130.835 51.2166 130.641 51.5629C130.447 51.9045 130.348 52.2853 130.343 52.7054V54.4435C130.343 54.9698 130.44 55.4245 130.634 55.8077C130.833 56.1909 131.112 56.4863 131.472 56.6941C131.832 56.9018 132.259 57.0057 132.753 57.0057C133.081 57.0057 133.381 56.9595 133.653 56.8672C133.926 56.7749 134.159 56.6364 134.353 56.4517C134.547 56.267 134.694 56.0408 134.796 55.7731L137.524 55.9531C137.386 56.6087 137.102 57.1811 136.673 57.6705C136.248 58.1552 135.698 58.5337 135.024 58.8061C134.355 59.0739 133.582 59.2077 132.705 59.2077ZM143.537 59.2077C142.462 59.2077 141.532 58.9792 140.747 58.5222C139.967 58.0605 139.364 57.4189 138.939 56.5971C138.515 55.7708 138.302 54.8129 138.302 53.7234C138.302 52.6246 138.515 51.6644 138.939 50.8427C139.364 50.0163 139.967 49.3746 140.747 48.9176C141.532 48.456 142.462 48.2251 143.537 48.2251C144.613 48.2251 145.541 48.456 146.321 48.9176C147.106 49.3746 147.711 50.0163 148.135 50.8427C148.56 51.6644 148.773 52.6246 148.773 53.7234C148.773 54.8129 148.56 55.7708 148.135 56.5971C147.711 57.4189 147.106 58.0605 146.321 58.5222C145.541 58.9792 144.613 59.2077 143.537 59.2077ZM143.551 56.9226C144.041 56.9226 144.449 56.7841 144.777 56.5071C145.105 56.2255 145.352 55.8423 145.518 55.3576C145.689 54.8729 145.774 54.3212 145.774 53.7026C145.774 53.084 145.689 52.5323 145.518 52.0476C145.352 51.5629 145.105 51.1797 144.777 50.8981C144.449 50.6165 144.041 50.4757 143.551 50.4757C143.057 50.4757 142.642 50.6165 142.305 50.8981C141.972 51.1797 141.721 51.5629 141.55 52.0476C141.384 52.5323 141.301 53.084 141.301 53.7026C141.301 54.3212 141.384 54.8729 141.55 55.3576C141.721 55.8423 141.972 56.2255 142.305 56.5071C142.642 56.7841 143.057 56.9226 143.551 56.9226ZM153.435 44.8182L153.165 54.7482H150.631L150.354 44.8182H153.435ZM151.898 59.18C151.441 59.18 151.049 59.0185 150.721 58.6953C150.393 58.3675 150.232 57.9751 150.236 57.5181C150.232 57.0657 150.393 56.6779 150.721 56.3548C151.049 56.0316 151.441 55.87 151.898 55.87C152.337 55.87 152.722 56.0316 153.054 56.3548C153.387 56.6779 153.555 57.0657 153.56 57.5181C153.555 57.8228 153.475 58.1021 153.318 58.356C153.165 58.6053 152.964 58.8061 152.715 58.9585C152.466 59.1062 152.194 59.18 151.898 59.18Z" fill="black"/>
</svg>
