<?xml version="1.0" encoding="UTF-8"?>
<svg id="Capa_3" data-name="Capa 3" xmlns="http://www.w3.org/2000/svg" viewBox="0 0 184.51 204.33">
  <path d="M184.41,68.03s0-.02,0-.04c0-.08-.01-.16-.03-.23,0-.02,0-.04,0-.06.07-.11.13-.24.13-.38,0-.12-.03-.24-.06-.35.03-.1.06-.21.06-.32,0-.09-.02-.18-.06-.27,0-.02.01-.05.01-.07,0-.14-.02-.3-.06-.44.03-.07.05-.15.05-.24,0-.06-.01-.12-.03-.18.01-.05.02-.1.02-.16,0-.16-.04-.33-.11-.49.02-.06.03-.12.03-.18,0-.16-.06-.29-.15-.42.03-.08.05-.16.05-.25,0-.16-.06-.31-.14-.45-.01-.12-.04-.23-.09-.33,0-.04,0-.08-.01-.12,0-.03.01-.07.01-.1,0-.17-.06-.34-.14-.48-.01-.2-.05-.39-.15-.54,0-.17-.08-.31-.17-.43,0-.03,0-.07-.02-.1,0-.03.02-.06.02-.1,0-.22-.08-.43-.19-.6-.03-.17-.1-.33-.2-.45,0-.03-.02-.06-.03-.09-.02-.11-.06-.21-.12-.3-.03-.13-.08-.26-.16-.37-.02-.19-.07-.37-.17-.52-.04-.12-.1-.22-.17-.31-.05-.08-.1-.16-.16-.23-.02-.16-.07-.3-.17-.42-.03-.24-.13-.47-.29-.64,0,0,0,0,0,0-.03-.11-.08-.21-.15-.31-.04-.21-.14-.41-.28-.56-.02-.13-.07-.26-.15-.37-.04-.2-.14-.38-.27-.53-.03-.11-.08-.21-.15-.3-.03-.13-.09-.24-.18-.34-.02-.17-.07-.33-.15-.47-.05-.16-.13-.3-.23-.43-.02-.25-.14-.5-.29-.68-.03-.14-.08-.26-.18-.36,0,0-.02-.01-.03-.02-.03-.19-.12-.37-.24-.51-.04-.14-.09-.26-.19-.36,0,0,0,0,0,0-.04-.15-.13-.29-.23-.41,0-.2-.04-.4-.17-.53-.01-.01-.03-.02-.04-.03,0-.02-.01-.04-.03-.06-.02-.14-.06-.28-.13-.39-.02-.04-.04-.09-.07-.13-.04-.23-.16-.47-.31-.62,0,0-.02-.01-.03-.02-.02-.06-.05-.12-.08-.17-.03-.24-.17-.46-.33-.63-.02-.14-.09-.27-.18-.38-.03-.1-.08-.2-.14-.28-.03-.19-.12-.36-.24-.5,0-.26-.13-.51-.3-.7-.03-.26-.13-.52-.3-.68-.03-.08-.08-.15-.13-.22-.03-.23-.16-.44-.31-.6,0,0,0,0,0-.01-.02-.21-.1-.41-.22-.57-.04-.15-.1-.28-.19-.39-.03-.25-.15-.49-.31-.65-.04-.04-.08-.06-.13-.09-.01-.04-.02-.09-.04-.13-.02-.26-.1-.53-.27-.7,0,0-.02-.02-.03-.02-.02-.04-.04-.08-.06-.12-.03-.15-.08-.29-.18-.4-.03-.13-.09-.26-.18-.35,0,0,0,0-.01,0-.03-.05-.06-.1-.1-.15-.01-.06-.03-.11-.06-.17.15-.07.29-.17.4-.28.05-.05.1-.11.15-.18.08-.04.15-.08.22-.14.08-.08.14-.18.18-.28.04-.03.08-.05.11-.08.09-.09.18-.21.24-.34.01,0,.02-.01.03-.03.1-.1.16-.22.19-.36.01,0,.02-.01.04-.02.16-.16.27-.4.3-.65.08-.1.14-.2.18-.32.09-.13.15-.28.17-.44.07-.13.12-.28.13-.43.07-.15.12-.32.12-.49,0-.05-.01-.09-.02-.13.1-.17.16-.38.16-.59,0-.01,0-.02,0-.03.05-.09.09-.19.09-.3,0-.07,0-.15-.03-.22,0-.03.01-.06.01-.09,0,0,0,0,0-.01.03-.09.05-.18.05-.27,0-.12-.04-.22-.09-.32,0-.08-.02-.16-.04-.23,0-.02,0-.05,0-.07.07-.15.11-.32.11-.48s-.04-.34-.12-.5c0-.03-.01-.07-.03-.1,0-.02.01-.04.01-.06,0-.19-.07-.35-.17-.5.01-.05.03-.1.03-.15,0-.22-.12-.42-.26-.58,0-.02,0-.03,0-.05,0-.25-.1-.51-.26-.7-.03-.16-.09-.3-.2-.4-.03-.03-.07-.05-.11-.08-.02-.02-.04-.04-.05-.05-.01-.05-.03-.09-.05-.13,0,0,0,0,0,0-.02-.04-.04-.08-.06-.11-.06-.1-.14-.2-.22-.28-.04-.17-.12-.33-.23-.44-.03-.03-.06-.05-.09-.07-.04-.06-.09-.12-.14-.17-.03-.03-.06-.05-.09-.07-.03-.07-.07-.13-.12-.19-.1-.1-.24-.19-.4-.26-.07-.06-.14-.11-.21-.15-.07-.06-.15-.1-.24-.14-.11-.11-.23-.22-.37-.3-.14-.12-.3-.21-.48-.25,0,0,0,0-.01,0,0,0,0,0-.01,0,0,0,0,0,0,0,0-.13-.05-.25-.11-.36,0-.13-.03-.25-.08-.36,0-.05-.02-.1-.03-.14,0-.02,0-.03,0-.05,0-.22-.09-.43-.22-.6,0-.01,0-.03,0-.04,0-.16-.03-.31-.09-.44,0-.08-.02-.15-.04-.22,0-.08-.01-.15-.03-.23,0-.03.01-.05.01-.08,0-.19-.07-.36-.17-.52,0-.01,0-.03-.01-.04,0-.03,0-.06,0-.08,0-.23-.07-.48-.19-.67,0-.2-.05-.4-.14-.57,0-.08-.02-.16-.04-.23.01-.04.02-.08.02-.13,0-.19-.08-.37-.18-.52,0-.04.02-.08.02-.12,0-.21-.07-.42-.17-.6,0-.01,0-.03,0-.04,0-.14-.04-.28-.11-.4-.02-.2-.08-.4-.19-.56,0-.08-.01-.15-.03-.22,0-.03.01-.07.01-.1,0-.13-.04-.25-.09-.36,0-.12-.04-.23-.1-.33,0-.12-.04-.24-.1-.34,0-.05,0-.1-.02-.15,0-.04.02-.07.02-.11,0-.24-.15-.45-.31-.63-.01-.04-.02-.07-.04-.11,0-.26-.04-.52-.21-.69-.02-.02-.05-.04-.08-.06-.02-.02-.04-.04-.06-.07-.04-.09-.08-.16-.14-.24-.05-.17-.13-.32-.26-.44-.01-.01-.03-.03-.05-.04-.05-.08-.1-.15-.17-.22s-.14-.11-.23-.15c-.01-.02-.03-.03-.04-.05-.17-.17-.4-.33-.65-.37-.12-.1-.25-.17-.41-.17-.03,0-.06,0-.09.01-.07-.02-.14-.03-.22-.03-.05,0-.09,0-.14.02-.06,0-.12,0-.18,0-.08,0-.15,0-.23,0-.03,0-.06,0-.1,0-.19,0-.34.05-.48.13-.17.01-.33.04-.46.12-.16.05-.31.14-.42.25-.03.03-.05.06-.07.08-.06.04-.12.09-.17.14-.03.03-.06.07-.09.11-.06.03-.11.07-.16.11-.11.11-.19.26-.24.42-.06.1-.09.21-.11.32-.08.14-.11.3-.13.48-.08.15-.12.33-.12.51,0,.01,0,.03,0,.04-.02.07-.04.15-.05.24-.05.12-.09.25-.09.38,0,.16.04.33.1.48,0,.03,0,.07,0,.1-.07.13-.11.27-.11.42,0,.07.01.14.03.21,0,.04-.02.08-.02.12,0,.15.04.3.11.44,0,.01,0,.02,0,.04,0,.06-.02.12-.02.19,0,.03,0,.06.01.09-.03.07-.05.15-.05.24,0,.09.02.18.05.27,0,.02,0,.04,0,.06,0,.15.04.28.11.4,0,.05,0,.1,0,.14,0,.04-.01.07-.01.11,0,0,0,0,0,0-.04.1-.07.21-.07.32,0,0,0,0,0,0-.06-.11-.13-.22-.22-.3-.03-.03-.06-.05-.1-.08-.05-.1-.11-.2-.18-.29-.06-.17-.17-.33-.29-.45,0,0-.02-.02-.03-.03-.04-.09-.09-.17-.16-.24,0,0-.02-.01-.03-.02-.04-.09-.09-.18-.16-.25-.03-.03-.06-.05-.08-.07-.04-.18-.13-.34-.25-.47-.06-.11-.13-.22-.22-.3-.01-.01-.03-.03-.05-.04-.06-.2-.16-.4-.3-.53-.01-.01-.03-.02-.05-.03-.03-.09-.07-.18-.14-.25-.06-.06-.13-.09-.2-.12-.05-.14-.13-.28-.23-.38-.04-.04-.09-.07-.13-.1-.03-.05-.06-.09-.1-.13-.11-.11-.25-.16-.41-.18-.09-.08-.18-.15-.29-.2-.02-.02-.04-.04-.07-.06-.02-.03-.03-.06-.06-.09-.16-.16-.39-.18-.63-.18-.09-.03-.18-.05-.27-.06-.17-.08-.36-.13-.55-.13-.09,0-.17.02-.26.04-.02,0-.04,0-.06,0-.26,0-.51.14-.7.3-.15.03-.28.08-.39.18-.08.08-.12.17-.15.28,0,0,0,0,0,0-.09.09-.16.18-.22.29-.17.17-.33.37-.35.62-.14.18-.23.42-.23.65,0,.17.05.34.12.49,0,.02,0,.04,0,.06,0,.04-.01.08-.01.13,0,.16,0,.32.04.46,0,0,0,.02,0,.02-.02.06-.03.13-.03.21,0,.05.01.1.02.15-.02.06-.03.12-.03.18,0,.16.04.33.11.48.03.2.1.39.21.54,0,.01.01.03.02.04,0,.06,0,.12.01.18,0,.02,0,.03,0,.05,0,.16.06.3.14.42.01.15.05.3.11.42,0,.04-.01.08-.01.12,0,.11.03.22.07.31,0,0,0,0,0,0,0,.09.02.19.04.28,0,.01,0,.03,0,.04,0,.17.07.34.17.48.02.16.08.31.16.44,0,.01,0,.02,0,.03,0,.18.07.34.17.49,0,.02,0,.04.01.07,0,.03-.01.05-.01.08,0,.22.11.4.25.56,0,.12.03.23.07.34,0,.01,0,.03,0,.04,0,.17.06.32.14.46.02.07.04.13.07.19,0,.19.08.36.18.51.02.09.05.18.1.26.03.19.1.37.2.51.02.19.12.37.24.52.03.1.07.19.12.27.01.17.05.34.14.47.05.13.12.25.22.35.02.04.05.08.07.12,0,.01,0,.02,0,.03,0,.21.11.39.24.54.01.18.06.34.15.48.04.11.11.21.18.3.02.14.07.26.16.36.04.11.1.2.18.29.03.13.1.25.18.36.03.1.08.18.14.26.03.22.12.43.27.57,0,0,0,0,.01,0,.02.11.06.22.11.32,0,.01,0,.02,0,.04,0,0,0,.02,0,.03,0,.02,0,.05-.01.07-.1.16-.17.33-.17.53,0,.06,0,.11.02.17,0,.06-.02.12-.02.18,0,.03,0,.05,0,.08-.02.08-.03.16-.04.25-.08.12-.14.26-.14.41,0,.04.01.07.02.11-.03.08-.06.17-.06.26,0,.07.02.14.04.21,0,.05-.01.1-.01.16,0,.06.01.12.03.18,0,.04,0,.09,0,.13-.06.11-.1.23-.1.35,0,.12.04.22.09.33,0,.04,0,.07,0,.11,0,0,0,.01,0,.02-.07.15-.12.31-.12.47s.05.31.11.45c.01.12.05.23.1.33,0,.05.01.1.03.15,0,.02,0,.04,0,.06,0,.15.03.3.09.43.03.16.12.31.23.43.01.21.05.42.18.55.03.03.07.05.1.08,0,0,0,.01.01.02.06.17.14.33.26.45.06.06.13.1.2.13.02.02.04.05.06.07.08.08.17.13.27.18,0,0,0,0,0,0,.13.13.29.22.48.28.02.02.03.05.06.07.12.12.28.18.45.22.19.12.42.18.65.18.02,0,.04,0,.05,0,.01,0,.02,0,.03,0,.13.09.29.15.45.17.14.06.3.1.45.1.06,0,.11-.01.16-.02.06.01.11.02.17.02.04,0,.08,0,.11-.01.08.02.15.02.23.02.16,0,.31-.05.45-.12.07.01.15.02.23.02.06,0,.12,0,.19,0,.03.1.06.19.11.28.04.16.12.3.22.42.02.17.08.33.17.47.04.11.1.21.17.3.05.17.13.32.24.44.03.16.11.31.21.44.01.06.03.12.05.17.02.2.1.39.21.54.04.15.11.29.22.4.02.02.04.03.06.04.02.2.08.38.2.52.03.13.07.25.16.34.02.07.06.14.1.21.03.24.16.46.31.63.02.13.07.25.16.35.01.08.04.15.08.21.02.09.05.18.1.25.05.17.13.34.24.46.05.11.1.21.18.29.03.2.11.38.23.53.02.05.05.1.08.14.02.09.06.17.11.25.04.16.11.31.22.44.01.13.05.25.1.36.05.12.12.23.2.33.03.1.08.19.14.27.02.09.05.17.1.24.03.17.1.33.21.45.03.24.14.48.29.64.02.09.06.17.12.24.02.13.07.25.14.35.05.21.17.41.31.56.03.06.06.12.1.18,0,0,0,.01,0,.02.01.22.11.42.24.59.05.1.11.2.18.28.03.13.08.24.15.34.02.23.14.44.29.61.01.1.04.19.08.27.04.18.11.36.23.48,0,0,.02.01.03.02.03.05.06.09.09.14.02.16.11.3.22.42.01.09.03.17.06.25.03.09.07.18.13.26.02.26.14.52.3.69.04.24.14.48.3.63,0,0,0,0,0,0,.04.07.08.14.14.21.02.1.05.18.1.26.02.11.06.2.11.29.06.14.14.27.23.37.02.08.06.16.11.23,0,.13.03.24.09.35.04.11.09.21.15.3.01.14.05.26.11.37.01.03.02.07.04.1.01.11.03.21.07.3,0,.07.02.13.04.19,0,.01,0,.03,0,.04,0,.08.01.16.03.24,0,.03-.01.05-.01.08,0,.15.06.29.15.41,0,.01,0,.03,0,.04-.02.06-.03.13-.03.2,0,.14.06.26.13.37-.03.09-.05.18-.05.28,0,.11.03.2.07.3,0,0,0,.02,0,.03,0,.09.02.17.04.25,0,.02,0,.05,0,.07-.05.1-.09.21-.09.32,0,.09.02.17.06.25-.05.13-.08.26-.08.39,0,.06.01.12.03.17,0,.05-.02.1-.02.15,0,.09.01.17.03.26-.06.12-.1.24-.1.38,0,.07.01.14.03.21-.07.13-.11.27-.11.42,0,.04,0,.07.01.11,0,.04,0,.08,0,.12-.01.03-.02.06-.02.09-.14.17-.27.39-.27.62,0,.02,0,.04.01.07,0,.04-.01.08-.02.12-.01.03-.02.06-.03.1-.06.09-.09.2-.11.31-.02.05-.04.1-.05.15-.12.14-.17.32-.18.52-.06.08-.1.17-.14.27-.09.1-.16.21-.21.34,0,0-.02.01-.03.02-.19.19-.34.49-.34.78-.04.06-.08.12-.11.18-.08.09-.14.18-.18.29-.06.06-.1.12-.15.18-.01.01-.03.02-.04.04-.14.14-.28.3-.35.48-.01.02-.03.03-.04.05-.11.06-.21.13-.29.21-.04.04-.07.09-.1.14-.05.03-.1.06-.14.1-.07.07-.12.16-.16.26-.01.01-.03.02-.04.03-.04.04-.07.08-.09.13-.06.03-.11.07-.16.11-.06.06-.1.13-.13.21-.03.02-.06.04-.09.07-.04.04-.07.08-.1.12-.06.03-.11.07-.16.12-.03.03-.05.06-.08.09-.07.03-.15.07-.2.12s-.11.13-.16.2c-.03.02-.06.04-.08.06-.02.02-.04.05-.06.07-.09.03-.17.07-.23.14-.03.03-.05.06-.07.1-.06.05-.12.09-.17.15-.05.05-.1.11-.14.17-.13.08-.25.18-.35.28,0,0-.01.01-.02.02-.08.07-.16.14-.23.2,0,0,0,0,0,0-.08.05-.16.11-.24.17-.09.03-.16.08-.23.13-.01-.02-.02-.05-.03-.07,0-.02,0-.04,0-.06,0-.32-.13-.61-.31-.86,0,0,0-.02,0-.03,0-.44-.21-.84-.47-1.16-.06-.33-.23-.61-.45-.85-.01-.29-.05-.56-.16-.8-.03-.37-.16-.73-.36-1.02-.1-.39-.35-.75-.62-1.02-.03-.11-.08-.22-.13-.32,0-.02,0-.03,0-.05,0-.54-.23-1.13-.58-1.48-.03-.03-.07-.05-.1-.08-.05-.21-.13-.4-.24-.56-.12-.37-.36-.71-.62-.97-.06-.06-.12-.1-.19-.14-.07-.16-.18-.31-.31-.45-.02-.44-.09-.88-.37-1.16-.04-.04-.09-.07-.13-.1-.09-.26-.22-.5-.4-.68-.05-.05-.12-.09-.18-.13-.07-.23-.19-.43-.35-.6-.08-.36-.24-.7-.47-.94-.09-.09-.21-.16-.33-.21-.08-.15-.17-.28-.29-.41-.12-.34-.33-.65-.57-.89-.05-.05-.11-.09-.17-.13-.1-.24-.25-.45-.43-.63-.05-.05-.11-.09-.17-.13-.09-.25-.22-.47-.41-.66-.07-.07-.15-.14-.24-.21-.09-.2-.21-.39-.37-.55-.1-.1-.21-.17-.33-.24-.08-.17-.19-.33-.33-.48-.02-.02-.04-.03-.06-.05-.12-.29-.3-.55-.51-.76-.09-.09-.19-.16-.3-.22-.1-.18-.22-.35-.37-.5-.06-.06-.13-.11-.2-.16-.09-.24-.23-.46-.4-.63-.13-.13-.28-.22-.45-.3-.09-.12-.19-.24-.29-.35-.08-.08-.16-.15-.25-.21-.11-.2-.24-.39-.39-.54-.09-.09-.2-.17-.32-.23-.07-.2-.17-.39-.32-.53-.11-.11-.25-.2-.4-.27-.08-.17-.17-.32-.29-.44-.15-.15-.35-.27-.57-.35-.06-.1-.13-.19-.21-.27-.15-.15-.34-.26-.54-.34-.06-.11-.14-.21-.23-.3-.21-.2-.46-.41-.74-.55-.02-.02-.04-.04-.05-.06-.18-.18-.38-.37-.61-.51-.04-.06-.07-.11-.12-.16-.15-.15-.32-.24-.51-.31-.08-.12-.17-.23-.26-.32-.14-.14-.3-.27-.47-.38-.05-.13-.12-.25-.22-.34-.2-.2-.47-.37-.77-.48-.03-.03-.05-.06-.07-.09-.18-.18-.41-.34-.66-.45-.04-.06-.08-.12-.13-.17-.26-.26-.64-.45-1.03-.53-.22-.21-.46-.43-.73-.56-.26-.26-.58-.48-.95-.57-.12-.11-.25-.2-.39-.27-.06-.14-.14-.26-.24-.37-.2-.2-.49-.31-.79-.38-.04-.04-.07-.09-.11-.13-.28-.28-.69-.41-1.12-.45-.19-.17-.39-.29-.62-.36-.04-.04-.08-.08-.11-.12-.19-.19-.41-.36-.66-.48-.03-.05-.06-.1-.1-.15-.28-.28-.72-.42-1.16-.47-.3-.28-.68-.55-1.1-.59-.11-.07-.22-.12-.34-.16-.05-.06-.09-.13-.14-.18-.29-.29-.75-.46-1.21-.5-.25-.19-.56-.32-.89-.37-.34-.29-.78-.51-1.26-.51,0,0-.02,0-.03,0-.24-.2-.51-.36-.84-.39-.21-.15-.46-.25-.72-.3-.3-.23-.71-.29-1.13-.31-.32-.3-.71-.57-1.17-.57-.04,0-.08.01-.12.02-.26-.18-.54-.31-.87-.31-.03,0-.06,0-.09.01-.11-.09-.22-.17-.34-.23,0,0,.01-.02.02-.02.08-.05.16-.11.23-.17.21-.07.41-.17.56-.33.09-.09.17-.2.24-.33.19-.04.36-.12.49-.25.09-.09.17-.2.25-.32,0,0,.02-.02.03-.02.04-.04.06-.08.09-.12.07-.06.15-.11.21-.18.09-.09.16-.2.22-.32.12-.08.23-.16.32-.26.13-.13.24-.31.32-.49.14-.19.24-.42.3-.66,0,0,0,0,0-.01.02-.02.05-.03.07-.05.35-.35.55-.93.55-1.47,0-.05-.01-.09-.02-.14.13-.24.21-.51.21-.79,0-.22-.06-.41-.16-.59.08-.16.14-.33.14-.52,0-.31-.13-.59-.31-.84-.01-.03-.02-.06-.04-.09-.02-.11-.04-.21-.08-.31-.03-.19-.1-.36-.2-.52-.1-.38-.34-.72-.6-.99-.02-.02-.05-.03-.07-.05-.03-.11-.07-.22-.12-.32-.1-.22-.22-.42-.38-.58-.11-.11-.24-.18-.38-.24-.02-.02-.05-.04-.08-.06-.09-.19-.21-.37-.34-.51-.23-.23-.55-.4-.9-.51-.04-.01-.07-.03-.12-.05-.1-.06-.21-.1-.32-.14-.03-.05-.06-.11-.1-.15-.31-.31-.8-.51-1.28-.56-.31-.22-.67-.37-1.04-.37-.02,0-.04,0-.05,0-.26-.17-.55-.29-.86-.29-.08,0-.17.02-.26.03-.11-.04-.23-.07-.35-.09-.27-.17-.58-.28-.9-.28-.12,0-.24.02-.35.05-.22-.13-.47-.22-.74-.22-.17,0-.33.03-.5.07-.17-.06-.34-.09-.53-.1-.23-.08-.48-.12-.73-.12-.05,0-.09.01-.13.02-.15-.05-.31-.08-.48-.08-.15,0-.29.02-.43.06,0,0,0,0-.01,0-.26-.09-.55-.14-.83-.14-.03,0-.05,0-.08,0-.19-.05-.39-.08-.58-.08-.16,0-.3.03-.43.09-.08,0-.16-.02-.24-.02,0,0,0,0-.01,0-.21-.11-.43-.18-.67-.18-.13,0-.26.02-.38.06-.1-.03-.2-.05-.31-.05-.28,0-.56.09-.81.22-.19-.09-.4-.15-.61-.15-.11,0-.21.02-.31.04-.14-.03-.28-.05-.41-.05-.18,0-.35.04-.53.1-.07,0-.14-.03-.21-.03-.19,0-.38.04-.57.1-.06,0-.12-.02-.18-.02-.14,0-.27.02-.4.07-.11-.04-.23-.06-.36-.06-.22,0-.42.06-.6.16-.05,0-.11-.02-.16-.02-.28,0-.54.08-.78.21-.16,0-.32.01-.47.03-.1,0-.2-.02-.31-.02-.24,0-.48.03-.7.09-.03,0-.06,0-.09,0-.29,0-.56.06-.81.17-.1,0-.19.01-.28.02-.16-.06-.33-.1-.51-.1-.22,0-.41.06-.6.14-.07,0-.14-.01-.21-.01-.15,0-.3.03-.44.07-.12-.04-.24-.06-.37-.06-.33,0-.63.13-.9.32-.09,0-.18,0-.26.02-.16-.03-.32-.05-.48-.05-.3,0-.59.07-.86.19-.2,0-.4.04-.59.09-.07,0-.14-.02-.21-.02-.25,0-.49.06-.71.16-.04,0-.08-.01-.13-.01-.26,0-.48.09-.68.21-.05,0-.1-.02-.15-.02-.3,0-.56.1-.8.24-.01,0-.03,0-.04,0-.15,0-.29,0-.44.01-.13-.04-.26-.07-.41-.07-.27,0-.53.09-.77.22-.03,0-.05-.01-.08-.01-.22,0-.43.05-.62.13-.07-.01-.15-.02-.22-.02-.41,0-.83.14-1.17.37,0,0-.01,0-.02,0-.06-.02-.12-.04-.18-.05.02-.01.04-.03.05-.04.24-.24.43-.57.53-.92.05-.06.09-.12.13-.18.05-.04.1-.08.14-.12.07-.07.14-.15.22-.23.12-.08.22-.17.32-.26.2-.2.29-.47.33-.76.04-.04.08-.08.11-.13.16-.07.31-.16.43-.28.16-.16.24-.36.3-.58.03-.02.06-.04.08-.06.22-.22.33-.51.39-.82.29-.29.61-.61.68-1.01.03-.04.06-.09.09-.13.16-.16.3-.34.41-.53.16-.16.25-.35.31-.56.02-.02.05-.04.07-.06.26-.26.53-.61.65-1,.1-.15.18-.32.23-.5.22-.24.43-.52.51-.84.04-.03.08-.05.11-.08.31-.31.5-.81.54-1.3.13-.17.24-.35.29-.56.16-.2.29-.42.34-.67.1-.14.19-.29.25-.45.02-.03.04-.06.06-.1,0,0,0,0,.01,0,.24-.24.33-.59.37-.95.21-.25.37-.55.44-.87.13-.27.2-.56.2-.86.06-.14.1-.3.12-.47.11-.19.18-.4.19-.63.19-.28.27-.63.29-1,.04-.09.06-.18.09-.28.12-.21.19-.45.23-.7.15-.27.26-.58.26-.89,0-.14-.03-.26-.08-.38.1-.2.17-.42.17-.65,0-.17-.03-.35-.08-.51,0-.22-.04-.43-.11-.63,0-.1.01-.21.01-.31,0-.16-.01-.33-.03-.48.04-.13.06-.27.06-.41,0-.26-.09-.49-.21-.7-.02-.35-.09-.68-.25-.96-.02-.25-.11-.49-.24-.71-.09-.39-.29-.77-.55-1.03-.13-.13-.29-.22-.46-.3-.08-.23-.2-.44-.36-.59-.12-.12-.28-.22-.44-.3-.07-.05-.14-.09-.22-.13-.28-.27-.69-.42-1.12-.47-.18-.1-.38-.16-.6-.16-.03,0-.06,0-.09,0-.14-.04-.29-.06-.45-.08-.18-.1-.37-.17-.59-.17-.23,0-.47.05-.69.14-.09-.01-.19-.02-.28-.02-.17,0-.32.04-.47.1-.24.01-.49.05-.71.13-.09-.02-.18-.04-.28-.04-.27,0-.52.09-.75.23-.19.05-.36.14-.53.25-.17.01-.33.04-.48.08-.2.03-.39.11-.55.23-.04.03-.08.06-.12.09-.02,0-.03,0-.05,0-.4,0-.74.24-1.03.51-.38.04-.7.24-.98.49-.06.01-.11.02-.16.04-.32.06-.6.21-.85.4-.27.07-.51.18-.7.37,0,0,0,0,0,0-.17.07-.32.18-.46.29-.33.12-.62.36-.87.6-.4.09-.77.33-1.05.6-.22.06-.42.15-.58.31-.03.03-.05.07-.08.11-.15.07-.28.16-.4.28,0,0-.02.02-.03.03-.2.05-.39.13-.54.28-.05.05-.1.12-.15.18-.12.06-.23.13-.33.23-.03.03-.06.07-.09.11-.15.08-.3.17-.42.29-.01.01-.02.02-.03.03-.2.07-.39.16-.54.31-.05.05-.09.12-.13.18-.14.06-.27.13-.38.24,0,0,0,0-.01.01-.22.08-.42.2-.57.35-.04.04-.07.1-.11.14-.15.09-.28.19-.4.31-.14.14-.22.32-.29.5-.03.03-.06.06-.09.09h0c-.09.05-.18.11-.26.18-.33.15-.62.42-.87.67-.12.12-.24.25-.35.39-.05.04-.1.07-.14.12-.05.05-.09.1-.14.15-.15.08-.29.18-.41.3-.05.05-.08.1-.12.15-.08.06-.15.12-.22.18-.29.14-.55.37-.77.59-.25.09-.47.22-.64.4-.15.15-.29.35-.4.57-.01.01-.03.02-.04.03-.1.1-.18.21-.26.33-.08.07-.16.15-.24.22-.09.09-.19.19-.28.3-.09.07-.17.15-.25.23-.02.02-.03.04-.05.06-.24.06-.46.15-.63.32-.1.1-.17.21-.22.34-.1.07-.19.15-.27.24-.08.08-.14.18-.19.27-.12.08-.24.17-.34.27-.13.13-.21.28-.28.44-.07.05-.14.09-.2.15-.09.09-.17.19-.23.3-.12.06-.23.13-.33.22-.13.13-.23.29-.32.46-.06.04-.12.08-.17.14-.2.2-.39.44-.53.7-.05.06-.11.12-.15.18-.13.06-.25.13-.36.24-.15.15-.25.33-.32.53-.04.04-.09.07-.13.11-.21.21-.38.45-.5.73-.06.06-.11.12-.16.19-.13.06-.25.14-.35.25-.16.16-.31.35-.43.56-.02.02-.04.03-.06.04-.1.1-.19.22-.27.35-.09.07-.18.14-.26.22-.09.09-.17.19-.25.29-.11.07-.22.14-.31.23-.13.13-.24.3-.34.48-.05.04-.1.07-.15.11-.21.21-.32.5-.38.81-.13.14-.26.28-.38.45-.02.02-.05.04-.08.06-.17.17-.3.39-.38.62-.01.01-.03.02-.04.03-.14.14-.26.31-.35.49-.04.03-.09.06-.13.1-.18.18-.33.4-.45.64-.19.2-.31.45-.38.73-.17.17-.34.36-.46.58-.17.18-.3.4-.38.64-.14.14-.27.29-.38.46-.02.02-.05.04-.07.06-.27.27-.44.68-.5,1.09-.02.02-.03.05-.05.08-.06.05-.12.1-.18.15-.25.25-.39.58-.45.94-.13.16-.22.34-.28.54-.17.2-.27.43-.33.68-.06.07-.12.13-.18.2-.06-.18-.14-.34-.27-.47-.1-.27-.26-.51-.45-.72-.06-.26-.17-.5-.34-.71-.05-.26-.14-.5-.29-.72-.09-.42-.34-.79-.63-1.07-.01-.01-.03-.02-.04-.03-.03-.07-.06-.13-.1-.2-.03-.46-.34-.83-.66-1.15-.01-.37-.07-.72-.3-.97-.1-.28-.25-.53-.44-.72-.07-.07-.15-.13-.24-.19-.1-.13-.2-.26-.32-.37,0,0-.02-.02-.03-.03-.05-.14-.12-.27-.2-.39-.06-.4-.21-.79-.47-1.05-.08-.08-.18-.16-.29-.22-.08-.1-.17-.2-.26-.29-.01-.01-.03-.03-.05-.04-.05-.11-.11-.21-.18-.31-.09-.37-.28-.72-.52-.96-.14-.14-.33-.24-.53-.32,0,0,0,0,0,0-.07-.17-.17-.33-.28-.47-.13-.3-.32-.57-.53-.78,0,0-.01,0-.02-.01-.11-.19-.24-.38-.38-.52-.09-.09-.19-.16-.31-.22-.05-.07-.1-.15-.17-.22-.05-.05-.11-.09-.16-.13-.09-.11-.19-.22-.28-.31-.02-.02-.04-.03-.05-.04-.09-.17-.19-.33-.32-.45-.09-.09-.18-.16-.29-.22-.05-.06-.1-.13-.15-.18-.09-.09-.19-.16-.3-.22-.05-.05-.09-.11-.14-.16,0,0-.01-.01-.02-.02-.1-.16-.2-.31-.32-.43s-.27-.21-.42-.3c0,0-.01-.02-.02-.03-.09-.09-.19-.17-.29-.24-.03-.04-.05-.09-.09-.13-.09-.09-.2-.16-.31-.21-.03-.04-.06-.08-.09-.11-.08-.08-.18-.14-.28-.2-.03-.04-.06-.09-.09-.12-.22-.22-.53-.29-.87-.31-.07-.06-.15-.11-.23-.16-.05-.07-.11-.14-.17-.2-.29-.29-.68-.56-1.1-.66-.27-.21-.58-.39-.91-.42-.08-.05-.18-.1-.27-.14-.18-.11-.38-.18-.59-.18-.05,0-.11,0-.16.01-.05,0-.11-.01-.16-.01-.09-.04-.19-.07-.29-.09-.23-.15-.48-.25-.76-.25-.08,0-.15,0-.23.02-.13-.05-.27-.08-.41-.08-.21,0-.41.06-.59.15-.1-.02-.19-.03-.29-.03-.32,0-.6.12-.85.28-.44.02-.88.1-1.17.39,0,0-.01.02-.02.02-.05.03-.1.07-.15.11-.2.07-.38.17-.52.32-.05.05-.09.11-.13.17-.07.06-.13.12-.2.17-.13.08-.25.18-.35.28-.09.09-.18.21-.25.32-.04.04-.07.08-.1.13-.02.02-.05.04-.08.06-.14.14-.24.33-.32.53-.03.02-.06.04-.08.07-.24.24-.36.6-.42.97-.03.07-.06.15-.08.23-.04.08-.07.15-.09.24-.18.22-.31.48-.38.76-.24.33-.4.75-.4,1.16,0,.07.02.14.03.22-.08.16-.13.33-.15.52-.1.19-.17.4-.17.63,0,.18.03.36.08.54,0,.04-.01.09-.01.13-.18.25-.31.53-.31.84,0,.09.02.17.04.26-.03.09-.04.18-.04.28,0,.29.08.6.2.88,0,.03,0,.06.01.09-.09.23-.15.47-.15.72,0,.18.05.35.12.5,0,.03,0,.06,0,.09,0,.28.06.54.16.78,0,.03,0,.06,0,.08-.02.12-.03.24-.03.37,0,.07.01.14.02.21-.03.14-.06.28-.06.42,0,.38.15.76.36,1.08.02.15.06.3.11.43,0,.04,0,.09.01.13-.03.11-.05.22-.05.33,0,.34.15.65.35.92.02.15.06.3.12.44,0,0,0,0,0,0,0,.22.06.41.14.6,0,.03,0,.07,0,.1,0,.27.12.5.27.71,0,.43.24.8.51,1.11.05.25.14.47.28.67.04.23.12.43.23.62.06.41.27.78.55,1.07.05.32.14.61.37.84.02.02.04.03.06.05.03.07.08.13.12.19.03.4.23.77.48,1.07.08.39.27.75.53,1.01.03.03.07.05.1.08.11.16.25.31.39.45.07.39.22.75.48,1.01.09.09.18.16.29.23.1.15.21.29.34.42.08.19.18.37.31.53-.14.03-.27.08-.39.13-.04,0-.08,0-.12.02-.04,0-.08-.01-.12-.01-.01,0-.02,0-.04,0-.16-.08-.33-.14-.52-.14-.12,0-.24.02-.36.04-.07,0-.14-.02-.21-.02-.15,0-.29.04-.42.09-.05,0-.11-.01-.17-.01-.27,0-.55.04-.81.13-.13-.05-.26-.08-.41-.08s-.28.03-.41.09c-.07-.01-.14-.02-.22-.02-.15,0-.29.03-.43.08-.07,0-.14-.03-.21-.03-.38,0-.77.14-1.1.35-.07-.01-.13-.03-.21-.03-.25,0-.47.05-.68.14-.03,0-.06,0-.1,0-.18-.06-.37-.11-.56-.11-.25,0-.5.07-.74.18-.31,0-.62.09-.89.22-.13-.07-.28-.11-.44-.11-.4,0-.82.17-1.15.4-.16.01-.31.05-.45.09-.14,0-.28.03-.41.06-.03,0-.07,0-.1,0-.15,0-.29.02-.43.04-.09-.02-.18-.04-.28-.04-.37,0-.76.13-1.07.33-.11-.04-.23-.07-.35-.07-.32,0-.63.13-.9.3-.23.03-.44.1-.63.21-.17.01-.33.05-.47.11-.04,0-.08-.02-.13-.02-.23,0-.44.05-.65.13-.02,0-.04,0-.07,0-.38,0-.76.12-1.07.32-.08.02-.15.04-.22.07-.04,0-.08-.02-.12-.02-.33,0-.64.1-.92.26-.37.04-.72.17-1.01.38-.05,0-.1-.02-.16-.02-.22,0-.43.06-.62.15-.02,0-.04,0-.06,0-.31,0-.58.15-.82.34-.26.03-.49.13-.7.27-.19.02-.36.06-.52.14-.43,0-.87.12-1.21.35-.12.03-.23.07-.34.12-.36.04-.72.15-1,.35-.23.06-.43.16-.61.29-.29.05-.55.14-.76.31-.3.05-.54.23-.77.43-.22.04-.41.12-.59.23-.24.07-.45.21-.64.37-.28.02-.54.07-.76.19-.29.1-.56.25-.77.45,0,0-.01.02-.02.03-.35.09-.66.3-.91.53-.23.05-.44.13-.61.3-.09.09-.15.19-.2.29-.23.09-.45.22-.63.41-.02.02-.04.04-.06.06-.06.04-.12.09-.18.14-.2.05-.38.14-.54.26-.21.09-.41.21-.56.36-.15.15-.27.34-.36.55-.09.06-.18.12-.26.2-.02.02-.04.04-.05.06-.06.04-.11.1-.16.14-.2.08-.39.19-.53.33-.1.1-.18.22-.25.34,0,0,0,0-.01,0-.28.28-.44.69-.5,1.12,0,.01-.02.02-.03.03,0,0-.01,0-.02.01-.17.17-.31.36-.41.57,0,0-.02.01-.03.02-.16.16-.24.37-.29.61-.01.03-.02.05-.03.08-.21.33-.34.76-.34,1.16,0,.1.02.19.04.29-.04.12-.07.24-.07.37-.06.14-.1.3-.1.46,0,.14.03.28.08.4,0,.21.04.41.1.6,0,.05-.02.11-.02.16,0,.29.11.54.27.77.04.08.09.15.14.21.02.13.06.26.11.38.05.33.17.64.36.89.06.22.14.43.3.59.1.1.24.18.38.23.07.08.15.17.22.24.05.05.11.1.16.15.09.18.19.35.32.48.2.2.48.36.79.47.01,0,.02.01.04.02.25.23.56.42.91.5.24.19.51.35.81.42.27.2.59.33.93.38.22.13.47.22.74.22.01,0,.02,0,.04,0,.05.01.11.02.17.03.08.04.17.07.26.1.31.2.66.33,1.03.33.08,0,.15-.01.22-.03.26.16.55.27.86.27.13,0,.25-.03.37-.07.02,0,.04,0,.06,0,.18.11.37.17.58.2-.06.04-.13.07-.18.13-.09.09-.17.2-.24.31-.01.01-.02.03-.03.04,0,0-.01,0-.02.01-.05.05-.08.11-.11.16-.16.09-.31.2-.43.31-.08.08-.14.18-.19.28-.08.09-.15.19-.21.3-.01.01-.03.02-.04.03-.02.02-.03.04-.05.06-.18.09-.34.19-.47.31-.04.04-.07.09-.1.13-.02.02-.06.03-.08.05-.04.04-.07.1-.11.15-.02.02-.05.03-.06.05-.11.11-.19.24-.27.38-.09.07-.19.14-.26.22-.05.05-.08.1-.11.15-.02.02-.05.03-.07.05-.1.1-.17.21-.23.33-.14.07-.27.14-.37.25-.1.1-.19.23-.26.36-.07.06-.15.11-.21.17-.12.12-.22.28-.31.45-.1.06-.19.13-.27.21-.11.11-.19.26-.25.41-.03.03-.07.04-.1.07-.12.12-.2.27-.27.42-.03.02-.06.04-.09.07-.01.01-.02.03-.03.04-.03.02-.06.04-.09.06-.06.06-.11.13-.17.2-.01.01-.03.02-.04.03,0,0,0,0,0,0-.04.03-.08.05-.12.09-.02.02-.03.04-.04.05-.02.02-.05.03-.07.05-.1.1-.17.22-.22.35-.06.04-.13.08-.18.13-.07.07-.13.15-.18.24,0,0,0,0-.01,0-.14.14-.26.33-.36.53-.03.03-.05.07-.08.11,0,0-.02.01-.03.02-.09.09-.16.19-.21.31-.09.1-.16.21-.22.32-.01.01-.03.02-.04.04-.11.11-.18.23-.25.36-.03.03-.05.06-.07.1-.03.02-.06.04-.08.06-.06.06-.11.13-.16.19-.02.02-.04.03-.06.05-.11.11-.19.24-.26.38,0,0-.02.02-.03.02-.02.02-.02.03-.04.05-.08.05-.16.1-.22.17-.13.13-.21.3-.25.49-.04.03-.08.06-.12.09-.16.16-.28.38-.37.61-.03.03-.05.06-.07.09,0,0-.02.02-.03.02-.12.12-.24.28-.34.44-.09.11-.16.24-.23.37-.01.01-.03.02-.04.03-.1.1-.19.22-.26.35-.1.15-.18.31-.23.49-.03.02-.06.04-.08.07-.14.14-.24.32-.32.51-.18.19-.31.43-.4.7-.06.04-.13.09-.18.14-.08.08-.15.18-.2.29,0,0,0,0,0,0-.16.16-.29.36-.4.59-.13.19-.24.4-.31.63-.15.17-.26.37-.33.59-.11.12-.18.27-.23.43-.04.08-.07.16-.09.24-.01.01-.02.03-.03.04-.03.03-.07.05-.1.08-.17.17-.32.4-.41.65-.17.18-.3.41-.39.67-.05.1-.08.2-.11.31-.01.01-.03.02-.04.03-.11.11-.18.25-.23.4-.15.21-.27.45-.33.72-.13.18-.22.38-.28.61-.01.01-.03.02-.04.03-.22.22-.35.53-.42.87-.19.25-.33.54-.39.85,0,0,0,0,0,0-.08.11-.15.22-.2.34-.14.23-.25.48-.3.75-.1.15-.18.3-.24.47-.01.02-.02.05-.03.07-.22.28-.39.63-.45.99-.17.28-.26.62-.29.96-.02.03-.04.05-.06.08-.17.21-.3.45-.35.71-.22.3-.37.68-.4,1.05-.06.12-.09.26-.11.4-.03.07-.05.14-.07.21-.07.11-.12.23-.17.36-.2.28-.34.6-.34.94,0,.03,0,.06,0,.09-.02.05-.04.09-.05.13-.03.06-.06.13-.09.19-.21.3-.36.67-.39,1.05-.08.17-.13.35-.14.54-.06.14-.09.28-.11.43-.07.13-.12.27-.15.41-.1.2-.17.42-.17.65,0,.08,0,.15.02.22,0,.04,0,.08-.01.13-.05.11-.08.22-.1.34-.01.03-.02.05-.03.08-.2.3-.32.67-.34,1.04-.12.24-.21.5-.24.77-.05.12-.09.24-.11.36-.06.17-.1.34-.1.51,0,0,0,0,0,.01-.04.14-.07.28-.07.43,0,.07,0,.14.02.2,0,.03-.02.06-.02.09-.13.26-.22.54-.22.83,0,.01,0,.02,0,.03-.04.13-.06.27-.08.4-.07.14-.11.3-.11.47,0,.04.01.07.02.11-.09.15-.14.32-.15.5-.02.1-.04.2-.04.3,0,.06.02.11.02.16-.06.17-.1.34-.1.53,0,.07.01.15.02.22-.13.29-.22.62-.22.93,0,.04.01.09.02.13-.02.11-.04.22-.04.34,0,.04.01.08.02.12-.05.19-.08.39-.08.58,0,0,0,0,0,0-.09.22-.14.46-.14.7,0,.09.01.19.03.28-.11.21-.19.43-.19.67,0,.04.01.09.02.13,0,.04,0,.07,0,.11,0,.13.02.26.07.38-.05.19-.08.39-.08.59,0,.03.01.05.01.08-.05.13-.08.26-.08.4,0,.08.01.17.02.25-.01.08-.03.15-.03.24,0,.03.01.06.01.09-.08.21-.13.43-.13.64,0,.08.02.16.03.23,0,0,0,0,0,.01,0,.14.02.28.05.41,0,.01,0,.03,0,.04-.05.18-.08.36-.08.54,0,.03,0,.07.01.1,0,.05-.02.1-.02.15,0,.03,0,.05,0,.08-.05.14-.08.28-.08.42,0,.2.06.39.13.58-.04.14-.06.28-.06.43,0,0,0,0,0,0-.05.16-.08.33-.08.5,0,.15.03.3.07.44-.03.1-.05.21-.05.32s.01.24.04.36c-.05.13-.08.27-.08.41,0,.08.02.15.03.23,0,0,0,.02,0,.03,0,.2.04.4.1.59,0,.06-.02.12-.02.18,0,.17.04.32.1.47,0,0,0,0,0,.01-.06.18-.1.37-.1.56,0,.17.04.34.09.51-.02.09-.04.18-.04.28,0,.16.03.3.09.45-.03.11-.05.23-.05.35,0,.09.02.18.04.26,0,0,0,0,0,0,0,.22.07.43.17.62,0,.06-.02.11-.02.17,0,.16.03.31.07.45-.02.12-.04.23-.04.35s.02.23.05.34c-.01.07-.02.13-.02.2,0,.22.07.42.18.6,0,0,0,0,0,0,0,.03,0,.06.01.09-.04.13-.06.26-.06.39,0,.19.06.36.14.51.01.07.03.15.05.22,0,.03-.01.06-.01.09,0,.2.04.4.1.6-.01.07-.03.15-.03.23,0,.3.1.59.24.85-.03.1-.05.21-.05.32,0,.26.09.48.22.69-.01.06-.02.13-.02.2,0,.18.03.36.08.53.02.23.11.43.23.62,0,.06-.02.11-.02.16,0,.39.1.77.29,1.09,0,.07-.02.14-.02.21,0,.29.1.56.24.8.02.08.06.15.09.22.02.2.06.39.13.57.01.08.03.15.05.22.02.21.07.41.16.59,0,.04-.01.09-.01.13,0,.39.23.73.49,1.02.01.34.06.69.21.97.05.11.12.21.19.31.02.09.04.17.08.25.06.19.14.37.28.51,0,0,0,0,.01,0,0,0,0,.01,0,.02,0,.06-.02.11-.02.17,0,.36.14.71.33,1.01.06.35.23.69.45.96.07.4.25.78.51,1.05.03.05.06.1.1.15.03.07.07.14.12.2.06.41.23.79.49,1.08.04.07.08.14.12.2.08.3.25.58.44.81.06.21.15.4.3.56.06.14.14.28.25.39,0,0,0,0,0,0,.11.26.27.51.46.7,0,0,.01,0,.02.01.06.13.14.25.23.36.08.27.21.52.4.73.09.29.24.56.45.77.08.08.17.14.26.19.02.02.04.05.07.08.02.02.04.04.06.06,0,0,0,.02,0,.02.09.4.32.78.59,1.05.07.07.15.14.24.2.08.17.2.33.32.47-.04.12-.07.25-.07.38-.08.09-.14.19-.17.3-.07.15-.12.3-.12.46,0,.07.01.13.03.2-.02.08-.02.16-.03.25-.09.14-.14.31-.15.49-.03.08-.06.16-.07.24-.04.11-.06.24-.07.37-.05.1-.08.21-.09.32-.09.13-.16.27-.16.42,0,.11.03.21.07.32,0,0,0,.02,0,.03-.07.13-.1.28-.11.45-.1.16-.18.33-.18.53,0,.01,0,.03,0,.04-.05.09-.08.18-.08.29,0,.03,0,.05,0,.08-.02.08-.03.16-.03.25,0,.02,0,.05,0,.07-.01.08-.02.17-.02.25-.01.04-.03.09-.03.14-.1.16-.18.34-.18.53,0,.03,0,.06,0,.08-.02.08-.03.17-.03.25s.01.16.03.24c0,.02,0,.04,0,.06-.07.11-.11.23-.11.37,0,.07.01.15.03.22-.08.14-.13.29-.13.45,0,.06.01.11.03.17,0,.06-.01.11-.01.17,0,.03,0,.07,0,.1,0,.07,0,.13-.01.2-.06.11-.1.23-.1.37,0,.08.01.16.03.24-.04.14-.05.28-.05.43,0,0,0,0,0,0-.04.1-.08.21-.08.33,0,.04,0,.07.01.11-.02.07-.04.14-.04.22,0,.03,0,.06.01.09-.02.08-.04.16-.04.24,0,.07,0,.14.02.2-.06.15-.1.31-.1.47,0,.04,0,.07.01.11-.02.07-.03.15-.03.22,0,.1.02.2.05.29-.07.12-.12.24-.12.38,0,.04.01.08.02.12-.03.07-.04.14-.04.22,0,.12.05.22.11.32-.06.11-.1.22-.1.35,0,.05.01.1.02.15-.02.06-.03.12-.03.18,0,.14.05.26.12.37,0,.03,0,.05,0,.07-.01.06-.02.12-.03.18-.08.11-.14.24-.14.39,0,.1.03.18.07.26,0,.03,0,.05,0,.07,0,0,0,0,0,0-.04.11-.06.22-.06.33,0,.1.03.2.06.3,0,.01,0,.02,0,.04,0,.03,0,.07,0,.1-.04.07-.06.15-.06.24s.03.17.06.24c0,.03-.01.06-.01.09,0,.15.04.3.11.43-.03.08-.05.15-.05.24s.02.17.05.24c0,.03,0,.06,0,.09,0,.14.02.28.07.41,0,.11,0,.23.02.34-.02.08-.04.17-.04.26,0,.1.02.2.06.28-.04.13-.06.26-.06.39,0,.14.02.28.07.42-.03.08-.05.17-.05.26,0,.16.06.31.13.45,0,.13.02.26.06.37-.01.06-.02.12-.02.18,0,.12.03.22.08.32,0,0,0,0,0,.01,0,.03,0,.06,0,.08-.03.08-.04.16-.04.25,0,.08.01.15.04.22,0,.04-.01.07-.01.11,0,.11.04.21.08.3-.02.02-.04.03-.06.05-.06.06-.1.12-.14.2-.02.02-.05.04-.07.06-.01.01-.02.02-.03.03-.09.04-.17.09-.24.17-.02.02-.03.04-.05.05-.06.05-.11.1-.16.15-.11.06-.21.14-.3.23-.04.04-.08.09-.12.13-.03.03-.07.06-.1.1-.1.07-.19.16-.27.24-.01.01-.02.02-.03.04-.05.04-.1.07-.15.12-.14.06-.27.15-.38.25-.07.07-.11.15-.14.23-.14.05-.27.12-.37.22-.07.07-.13.16-.19.26,0,0-.01,0-.02.01-.01.01-.02.03-.04.04-.09.05-.17.1-.24.17-.09.09-.15.2-.19.32-.1.05-.19.12-.26.19-.06.06-.11.12-.16.2-.02.02-.05.03-.07.05-.1.1-.2.23-.27.38-.06.04-.12.09-.18.14-.05.05-.09.11-.12.17-.03.03-.07.05-.1.08-.03.03-.06.07-.09.11-.06.03-.11.07-.16.12-.07.07-.12.17-.15.27,0,0-.02.01-.03.02-.09.09-.17.19-.23.31-.09.05-.17.1-.23.17-.1.1-.16.22-.2.37-.01.02-.03.03-.04.05-.06.04-.11.08-.15.12-.12.12-.21.29-.27.47-.02.03-.04.07-.06.1,0,0-.02.01-.02.02-.05.05-.09.1-.13.16-.04.02-.07.04-.1.07-.11.11-.16.27-.18.44-.03.03-.06.06-.09.1-.02.02-.04.03-.06.05-.12.12-.18.28-.21.46-.11.15-.2.32-.23.51-.09.14-.15.29-.15.45,0,.05.01.1.02.14-.04.12-.06.25-.07.38-.07.15-.12.31-.12.47,0,.15.05.3.12.43,0,.06.02.11.04.17,0,.02,0,.04,0,.06,0,.22.09.42.22.58,0,0,0,.02,0,.03,0,.29.17.57.36.76.07.07.15.11.23.15.02.02.03.03.04.05.02.02.04.04.06.06.04.07.09.13.15.2.02.02.04.04.06.06.03.08.08.15.14.21.13.13.31.19.5.22.12.08.27.13.42.15.14.11.3.18.49.18.07,0,.15-.01.22-.03.04,0,.07,0,.11,0,.02,0,.03,0,.05,0,.1.01.19.02.29.02.18,0,.36-.02.52-.08.04,0,.08.01.12.01,0,0,0,0,0,0,0,0,0,0,0,0,0,.05,0,.1.02.15-.01.06-.02.12-.02.18,0,.04.01.08.02.12-.01.07-.02.15-.02.22,0,.1.03.2.06.3,0,.01,0,.03,0,.04,0,.04,0,.08.01.12,0,.07-.01.14-.01.22,0,.03,0,.05,0,.08-.02.09-.03.17-.03.26s.02.17.05.24c0,.03-.01.06-.01.09,0,.11.03.2.06.29,0,.01,0,.03,0,.04,0,.1.02.19.05.27,0,0,0,0,0,0-.07.12-.12.25-.12.39s.05.27.11.39c0,.05,0,.09.01.14,0,.05-.01.09-.01.14,0,.02,0,.03,0,.04-.05.09-.09.18-.09.29,0,.17.06.33.14.47,0,0,0,0,0,0,0,.06,0,.13,0,.19,0,.01,0,.03,0,.04-.05.09-.09.18-.09.29,0,.06,0,.12.02.18,0,.05-.02.1-.02.15,0,.18.07.37.16.53,0,.03.01.06.02.09,0,.02,0,.03,0,.05,0,.01,0,.02,0,.03-.03.1-.05.19-.05.3s.02.2.05.29c0,.01,0,.02,0,.04,0,.16.04.31.1.44.01.14.06.27.12.39.02.09.06.17.11.25.05.23.18.45.34.61.06.06.12.1.19.15.02.03.03.06.06.08.14.14.32.24.53.29.11.08.24.15.37.18.15.07.32.11.48.11s.32-.04.46-.11c.24-.03.46-.14.62-.31,0,0,0,0,.01-.01.02-.02.05-.04.07-.06.15-.08.28-.2.39-.31.04-.04.07-.07.1-.11.05-.03.09-.07.13-.11.17-.17.27-.43.29-.7.06-.1.1-.2.11-.32.1-.12.17-.26.17-.42,0-.04,0-.07-.01-.11,0-.03.01-.06.01-.09,0,0,0,.01.01.02,0,.16.06.29.15.42,0,.05.01.09.03.14,0,.02,0,.04,0,.06,0,.14.04.27.1.38.02.19.12.35.24.49,0,.03-.02.06-.02.09,0,.29.2.54.39.73,0,0,0,0,0,0,.03.06.06.12.11.17.02.18.07.35.2.47.06.06.13.1.21.14.02.03.04.05.07.08.02.02.04.03.05.04.04.09.09.17.15.23.07.07.16.12.25.15,0,0,0,.01.01.02.15.15.37.2.6.21.15.07.32.11.5.11,0,0,.01,0,.02,0,.09.04.19.07.3.07.22,0,.44-.06.62-.17.19-.04.36-.12.48-.24,0,0,0,0,0-.01.1-.04.2-.09.27-.17s.13-.18.18-.28c0,0,0,0,0,0,.11-.1.19-.24.24-.38.15-.19.28-.43.28-.68,0-.04-.01-.07-.02-.11,0-.01,0-.03,0-.04.05-.16.08-.33.08-.5,0-.05,0-.09-.02-.13.01-.07.02-.13.02-.2,0,0,0-.02,0-.03.05-.1.09-.2.09-.31,0-.1-.03-.19-.08-.28,0-.02,0-.04,0-.06,0-.13-.04-.24-.1-.34,0-.08,0-.16-.02-.23,0-.01,0-.03,0-.04.01,0,.02.02.04.03.04.17.11.32.22.44.04.04.09.08.15.11.02.05.05.09.09.13.1.1.24.17.39.21.1.08.21.13.33.16.17.17.36.33.6.33.04,0,.09-.01.13-.02.02,0,.04,0,.06,0,.12.08.26.15.42.15.05,0,.1,0,.14-.02.06.01.12.02.19.02.16,0,.32-.04.46-.11.08-.02.16-.04.23-.08.27-.03.53-.17.71-.34.06-.06.11-.14.15-.22.02-.01.03-.03.05-.04.06-.06.12-.13.17-.21.02-.02.03-.03.05-.05.07-.07.14-.15.2-.24,0,0,.01-.01.02-.02.16-.16.31-.37.36-.61,0-.02.02-.04.02-.07.16-.19.27-.44.27-.7,0-.03,0-.06-.01-.09.03-.08.06-.16.06-.24,0-.13-.03-.26-.07-.38.02-.09.03-.19.03-.29,0-.06-.01-.12-.02-.18,0-.05.01-.1.01-.15,0-.14-.05-.26-.12-.38,0-.23-.05-.47-.17-.65,0-.27-.09-.56-.26-.74-.03-.2-.12-.38-.24-.53,0-.01,0-.02,0-.03,0-.13-.03-.25-.08-.36-.02-.16-.07-.32-.14-.46-.06-.15-.15-.29-.25-.4-.04-.07-.09-.13-.14-.19-.02-.09-.05-.18-.1-.25,0-.15-.02-.3-.08-.43-.03-.14-.09-.26-.17-.37-.02-.15-.08-.29-.17-.41-.02-.08-.05-.15-.09-.22-.03-.22-.14-.43-.28-.6,0-.02-.02-.03-.03-.05-.02-.17-.06-.33-.14-.47-.05-.21-.14-.4-.28-.53-.01-.01-.02-.02-.04-.02-.02-.14-.05-.27-.11-.39-.04-.15-.11-.29-.2-.41-.05-.15-.12-.28-.22-.38,0,0-.01,0-.02-.01,0,0-.01-.02-.02-.02-.03-.22-.11-.42-.26-.56,0,0,0,0-.01,0-.01-.02-.02-.04-.04-.06-.02-.22-.07-.42-.21-.57-.02-.02-.04-.03-.06-.04-.01-.01-.02-.03-.03-.04-.02-.13-.05-.25-.1-.36-.05-.16-.13-.31-.24-.42-.02-.07-.05-.14-.09-.21-.03-.15-.08-.28-.17-.39-.03-.08-.07-.14-.11-.21-.02-.23-.15-.44-.3-.61-.03-.1-.07-.19-.12-.27-.03-.16-.09-.31-.2-.43-.04-.15-.12-.29-.22-.41-.04-.15-.11-.28-.21-.4,0,0,0-.02-.01-.03.02-.09.04-.18.04-.28,0-.05-.01-.09-.02-.14.02-.07.03-.14.03-.21,0-.05,0-.09-.01-.14.02-.07.04-.14.04-.21,0-.13-.04-.25-.1-.36,0-.03,0-.06,0-.1.02-.08.03-.16.03-.25,0-.02,0-.04,0-.05.04-.09.07-.19.07-.3s-.04-.21-.08-.3c0-.02,0-.04,0-.06,0,0,0-.02,0-.03.07-.1.12-.2.12-.33,0-.09-.02-.17-.05-.26,0-.03.02-.06.02-.1,0-.13-.03-.26-.07-.38.03-.11.06-.22.06-.33,0-.1-.03-.18-.06-.26.06-.14.1-.3.1-.45,0-.08-.01-.16-.03-.23.01-.04.03-.08.03-.13,0-.08-.02-.16-.05-.24,0-.04.02-.08.02-.12,0-.09-.02-.17-.05-.25,0-.04.02-.07.02-.11,0-.09-.01-.18-.03-.27.07-.14.11-.3.11-.45,0-.07-.01-.13-.03-.19.01-.05.02-.11.02-.16,0-.13-.04-.26-.1-.38.06-.1.11-.22.11-.34,0-.15-.05-.29-.12-.41.04-.1.06-.2.06-.31,0-.1-.02-.19-.06-.27,0-.03,0-.06,0-.09,0-.02,0-.03,0-.05.02-.08.03-.16.03-.25.05-.13.08-.27.08-.42,0-.06,0-.13-.02-.19,0-.06.01-.11.01-.16,0-.03,0-.06-.01-.09.02-.09.04-.18.04-.27,0-.05,0-.11-.01-.16.02-.06.03-.12.03-.19,0-.1-.02-.2-.06-.3,0-.02,0-.04,0-.06,0-.04,0-.08-.01-.13.01-.07.02-.15.02-.23,0-.03,0-.05,0-.08.01-.09.02-.19.02-.28,0-.01,0-.02,0-.04.05-.1.09-.2.09-.32,0-.1-.02-.2-.06-.3.04-.13.06-.27.06-.41,0-.08,0-.15-.03-.23.06-.15.08-.31.08-.47,0-.03,0-.05,0-.08.02-.09.04-.18.04-.27,0,0,0-.01,0-.02.04-.11.07-.21.07-.33,0-.1-.03-.2-.07-.3.03-.13.04-.26.04-.39,0-.03,0-.06-.01-.09.02-.06.02-.13.03-.2.08-.12.14-.25.14-.39,0-.06-.02-.12-.03-.18,0-.05.02-.1.02-.16,0-.09-.02-.17-.05-.24,0-.03,0-.06,0-.1,0-.01,0-.03,0-.04.03-.09.06-.18.06-.29,0-.01,0-.03,0-.04,0-.06.01-.12.01-.18.1-.13.17-.28.17-.44,0-.04-.01-.07-.02-.11.02-.07.03-.14.03-.22,0-.07-.01-.13-.03-.19.08-.14.13-.3.13-.46,0-.03,0-.05,0-.08.02-.07.04-.14.04-.22.03-.11.05-.23.05-.34,0-.03,0-.06-.01-.1.01-.03.02-.06.03-.09.15.11.32.21.51.28.02.01.03.03.05.04.09.14.19.28.3.39.15.15.34.29.54.4.05.05.09.11.14.16.08.08.18.15.28.21.02.03.04.06.06.08.07.07.15.13.23.19.03.04.06.08.09.12.14.14.31.23.49.31.06.09.13.18.2.25.05.05.11.08.16.12.04.07.08.14.14.2.25.25.61.45.99.55.08.07.16.13.25.19.07.11.15.21.23.29.04.04.1.07.15.11.04.08.09.16.15.22.19.19.46.29.74.33.03.02.06.04.1.06,0,0,0,0,.01.01.14.14.29.26.46.38.06.08.12.17.18.24.22.22.53.39.87.49,0,0,0,0,0,0,.21.2.48.36.77.46.18.17.4.33.63.43.02.02.03.05.05.07.23.23.55.4.89.49.15.11.3.2.47.26.04.02.09.05.13.07.03.04.05.09.09.13.26.26.62.48,1,.58.24.21.52.39.83.48.07.02.14.04.21.06.21.17.44.31.69.38.12.08.25.14.38.19.04.05.07.11.11.16.2.2.47.28.76.33.03.03.05.07.08.1.14.14.31.23.5.3.33.29.8.5,1.26.53.02.01.04.02.06.03.11.09.24.17.38.23.18.17.42.3.67.4.25.15.56.25.86.29.23.16.49.27.78.32.15.12.32.22.51.29.21.1.45.14.71.16.23.22.53.32.86.38.2.15.42.26.66.32.33.26.76.45,1.19.46.29.19.62.33.97.33,0,0,.01,0,.02,0,.16.09.33.16.51.2.22.14.5.19.8.21.28.22.61.4.98.4.04.01.08.03.13.04.29.2.66.3,1.04.32.13.06.27.11.41.14.24.15.51.25.8.25,0,0,0,0,0,0,.1.04.21.06.32.07.08.05.17.1.26.13.26.14.55.22.85.23.29.18.63.32.97.32.06,0,.11-.02.16-.02.23.13.49.21.77.22.26.15.55.24.85.27.13.06.27.11.41.14.24.1.5.17.75.17.05,0,.09-.01.14-.02.25.15.53.26.82.27.17.05.35.09.53.09.07,0,.13-.02.2-.02.25.11.52.18.8.18.03,0,.06-.01.1-.02.16.06.33.11.51.13.26.09.53.14.81.15.17.1.35.17.55.19.18.07.37.12.56.12.18,0,.35-.04.51-.11.18.11.37.2.58.26.3.15.64.25.96.25.1,0,.19-.02.29-.04.08,0,.15.02.23.02.09,0,.18-.02.26-.04.07,0,.13.01.2.02.17.09.36.15.58.15.07,0,.14-.01.2-.02.25.18.53.31.84.31.04,0,.09-.01.13-.02.13.03.26.05.39.05.01,0,.03,0,.04,0,.15.08.31.13.48.13.2,0,.41-.05.61-.13.06,0,.13.01.19.01.2.08.41.12.64.13.2.12.42.2.67.2.02,0,.03,0,.05,0,.16.04.32.07.48.07.03,0,.05,0,.07,0,.15.04.3.06.45.06.21,0,.43-.04.64-.11-.02.12-.03.25-.01.37-.04.09-.06.19-.07.3-.05.13-.07.26-.07.4-.1.18-.13.41-.11.64,0,.02,0,.04,0,.07-.04.11-.04.24-.03.37-.05.15-.07.31-.05.47-.01.05-.03.09-.03.14-.08.17-.13.37-.12.56-.08.15-.09.32-.06.5-.09.19-.15.41-.12.63,0,.02-.02.04-.02.06-.05.14-.07.29-.05.45-.06.16-.08.35-.06.53,0,.02-.02.03-.02.05,0,.01-.02.02-.03.03-.14.23-.16.57-.09.85,0,0,0,0,0,0,0,.05-.01.11-.01.16-.03.07-.06.15-.07.22-.13.22-.2.51-.14.78,0,.02,0,.05,0,.08-.08.16-.13.34-.12.53-.05.14-.08.29-.07.45-.04.11-.05.24-.05.36-.09.18-.15.39-.13.6-.02.08-.02.16-.02.24-.09.17-.15.37-.15.57-.06.17-.09.36-.06.54,0,.02,0,.04,0,.06,0,.01-.02.02-.02.03-.11.2-.16.47-.13.72-.02.09-.03.17-.04.27-.03.1-.05.2-.04.3,0,.01-.02.03-.03.04-.08.14-.09.31-.07.49-.12.22-.16.52-.1.78-.02.02-.04.05-.05.07-.1.18-.08.39-.03.61-.08.16-.14.34-.13.52-.03.1-.04.21-.03.33-.05.1-.09.21-.1.32,0,0,0,0,0,.01-.11.19-.13.42-.09.66-.02.05-.04.09-.05.14-.02.02-.03.04-.05.07-.1.18-.14.41-.11.64-.08.17-.12.35-.11.53-.02.11-.03.22-.02.33-.07.15-.13.31-.14.47-.02.08-.03.17-.02.26-.1.18-.15.4-.14.62-.03.09-.04.18-.05.28-.06.14-.09.3-.07.46-.04.07-.07.14-.09.22,0,0-.01.01-.02.02-.08.13-.1.29-.09.46-.1.19-.15.43-.13.66-.04.13-.06.27-.05.41-.02.07-.03.14-.03.21-.11.21-.18.46-.12.7-.08.14-.13.29-.16.45-.05.13-.06.27-.05.42-.03.07-.05.14-.06.21,0,0,0,0,0,0-.11.18-.2.41-.2.63-.02.07-.02.15-.02.23-.02.05-.03.11-.04.16-.07.12-.1.26-.1.4-.04.08-.05.17-.05.26,0,0,0,0,0,0-.08.15-.09.32-.06.49-.05.1-.09.2-.11.31-.09.2-.13.42-.07.65,0,.02.02.04.03.07,0,.01,0,.03,0,.04-.03.11-.03.23-.02.35,0,.15.02.32.06.47,0,0,0,0,0,0-.02.1-.02.21,0,.31.04.15.12.28.23.38.02.05.04.09.06.14,0,0,0,.01,0,.02.06.22.18.43.34.58.07.09.15.17.24.23.07.12.16.22.26.29.07.1.16.18.26.24.08.05.17.08.26.11.08.09.16.17.26.22.09.05.2.08.31.1.12.07.26.12.4.14.21.1.47.15.71.09.14.06.28.11.43.11.11.03.23.04.34.03.16.05.33.05.51.02.17.09.38.13.58.12.17.03.36.02.52-.02,0,0,0,0,0,0,.03,0,.07,0,.1,0,.15.07.3.1.46.08.13.04.28.06.42.05.11.02.22.03.34.02.11.02.22.02.34,0,.07,0,.14,0,.21-.02.14.03.28.02.43,0,.1.04.19.08.3.09.17.05.36.07.53.03.03,0,.07-.03.1-.04.17.07.36.11.54.07,0,0,0,0,.01,0,.1,0,.2,0,.3-.02,0,0,0,0,.01,0,.18.06.38.07.57.04.07,0,.13,0,.2,0,.16.04.34.04.51,0,.01,0,.03-.01.04-.02.03,0,.06-.01.09-.02.02,0,.04.01.06.01.19.09.43.13.65.1.15.03.31.02.46-.01,0,0,0,0,0,0,.1.02.21.03.31,0,.02,0,.04-.02.06-.03.03,0,.06,0,.1-.01.1,0,.21-.01.32-.03.09,0,.18,0,.27-.01.17.09.35.15.54.1,0,0,.02,0,.03-.01.08,0,.16,0,.24-.02.12.03.24.04.36.01.08-.02.15-.05.22-.09.12.04.25.05.39,0,0,0,0,0,0,0,.12.03.25.05.37.04.19.05.39.05.58,0,.03,0,.05-.02.08-.04.07,0,.14-.01.21-.03.08-.02.15-.05.22-.09,0,0,.01,0,.02,0,.21.09.45.14.68.08.02,0,.03-.02.05-.02.08.01.16.02.25,0,.02,0,.03-.01.05-.02.05,0,.1-.02.16-.03.07,0,.14,0,.21-.02.08,0,.17-.02.25-.03.16.03.33.04.49,0,.03,0,.04-.02.07-.03.18.04.38.05.55,0,0,0,.01,0,.02,0,.1.01.2.01.3-.01.07-.02.13-.05.19-.09.14.02.29.02.42-.02.04-.01.08-.03.13-.05.06,0,.12,0,.18-.02.06-.02.11-.04.16-.07.05,0,.09,0,.14-.02.14-.04.27-.11.38-.2.07,0,.13,0,.2-.03.15-.04.26-.13.36-.23.07,0,.14,0,.2-.03.22-.06.4-.23.53-.41,0,0,.02,0,.03-.02.14-.06.25-.16.34-.28.14-.08.25-.19.34-.31.16-.08.29-.19.38-.33.08-.13.12-.3.12-.47.05-.09.09-.18.11-.28.01-.03.02-.06.03-.09.01-.02.02-.03.03-.05.04-.08.07-.15.09-.23,0-.01.02-.02.03-.03.08-.15.11-.32.1-.49.05-.14.07-.3.06-.46.03-.16.04-.34,0-.5-.01-.05-.04-.1-.06-.15,0-.05,0-.1-.02-.15,0,0,0-.01,0-.02.02-.1.03-.2,0-.3-.04-.17-.14-.33-.27-.46-.03-.1-.08-.2-.13-.28,0-.04-.01-.07-.02-.11-.06-.22-.19-.43-.35-.57-.07-.14-.16-.26-.28-.34-.08-.14-.21-.25-.35-.34-.06-.17-.14-.33-.28-.41-.05-.03-.1-.04-.16-.05-.02-.02-.04-.04-.07-.05-.07-.11-.15-.21-.26-.27-.07-.04-.15-.07-.24-.09-.01,0-.02-.02-.03-.02-.08-.09-.16-.17-.25-.22-.07-.04-.16-.06-.25-.07-.02-.01-.03-.03-.05-.04-.13-.07-.28-.11-.44-.12-.05-.04-.1-.07-.15-.1-.1-.06-.21-.08-.32-.09-.15-.08-.32-.14-.49-.15-.13-.07-.26-.13-.4-.14-.18-.1-.39-.17-.6-.16-.11-.04-.22-.06-.33-.05-.03-.01-.06-.03-.09-.04-.01,0-.02-.02-.03-.02-.09-.05-.2-.06-.31-.06-.03,0-.05,0-.08,0,0,0,0,0,0,0-.03,0-.05,0-.08,0-.19-.09-.41-.14-.62-.11-.22-.11-.51-.13-.76-.07-.13-.06-.27-.09-.41-.05-.02,0-.04.02-.06.02-.11-.04-.23-.05-.35-.04-.23-.1-.52-.14-.77-.07-.05.01-.09.04-.13.06-.02,0-.04,0-.06,0-.11-.03-.22-.04-.34-.03-.14-.04-.3-.04-.46-.01-.2-.08-.43-.1-.65-.04-.03,0-.06.03-.09.04-.05,0-.09,0-.14,0-.14-.03-.29-.03-.45,0-.18-.08-.37-.14-.57-.09-.05.01-.1.04-.15.07-.03,0-.06,0-.09.01-.18-.08-.37-.13-.57-.08-.04.01-.07.03-.11.05-.09,0-.17,0-.26.03,0,0-.02,0-.02,0-.2-.07-.44-.07-.66-.02-.03-.01-.06-.01-.09-.02.06-.17.07-.37.04-.55.03-.09.04-.17.03-.26.03-.11.02-.23,0-.34,0-.01.01-.03.02-.04,0,0,0,0,0,0,0-.01,0-.02.01-.04.02-.04.03-.07.05-.11.01-.04.02-.08.03-.12,0-.03.01-.06.01-.09,0-.02,0-.03,0-.05.09-.2.13-.43.09-.66.06-.15.06-.31.04-.48.05-.11.09-.22.1-.34.08-.2.13-.43.07-.65,0-.02-.01-.04-.02-.06,0,0,0-.01,0-.02.1-.19.17-.4.14-.62,0-.04,0-.09,0-.13.06-.12.1-.25.12-.39.06-.18.05-.4,0-.61.03-.1.05-.2.05-.31.07-.14.12-.3.12-.46.02-.07.03-.14.03-.21,0,0,0,0,0,0,.11-.2.08-.45.03-.69.03-.07.06-.13.07-.2,0,0,0,0,.01-.01.11-.19.09-.43.04-.67.05-.09.08-.19.11-.29.07-.15.09-.33.07-.52.05-.16.04-.34,0-.53.08-.17.12-.35.11-.53.04-.1.07-.22.08-.33.08-.2.08-.43.03-.66.05-.12.09-.25.09-.38.07-.19.1-.41.06-.62.01-.12,0-.25-.03-.39.06-.15.07-.31.05-.48.1-.18.17-.37.14-.57.03-.13.04-.26.02-.4.09-.19.14-.41.08-.63,0,0,0-.01,0-.02.06-.14.09-.3.05-.45,0-.01,0-.02-.01-.03,0-.01,0-.02,0-.03,0,0,.01-.01.02-.02.14-.23.16-.58.09-.86,0,0,0,0,0-.01.06-.15.08-.3.04-.46,0-.03-.02-.06-.04-.09,0-.07,0-.13,0-.2.03-.1.04-.21.04-.33.07-.16.08-.35.06-.54.06-.15.08-.32.07-.49.06-.2.08-.42.03-.63,0-.02-.02-.04-.02-.06.03-.1.03-.2.01-.3.07-.17.12-.34.07-.52-.01-.05-.04-.09-.06-.14,0-.01,0-.03,0-.04.03-.11.03-.22.02-.33.04-.12.06-.25.06-.38.09.01.17.02.26.02.17,0,.33-.04.48-.09.18.11.38.18.61.18.18,0,.36-.05.53-.11.19.05.37.08.56.08.05,0,.09,0,.14-.01.14.03.27.05.41.05.09,0,.18-.01.26-.03.09.02.19.04.29.04.2,0,.39-.06.58-.14.14,0,.27-.02.39-.05.21.1.44.17.68.17.1,0,.19-.02.28-.04.09.02.18.03.27.03.2,0,.39-.06.56-.14.17.06.35.1.54.1.14,0,.27-.02.4-.06.05,0,.1.02.15.02.21,0,.41-.05.6-.12.13,0,.27-.02.4-.04.21.08.43.14.66.14.26,0,.5-.09.72-.23.07,0,.15,0,.21-.02.06,0,.12.01.18.01s.12,0,.17-.01c.13.01.25.02.38.02.02,0,.04,0,.06,0,.16.04.32.07.49.07.18,0,.37-.03.55-.08,0,0,0,0,0,0,.22,0,.45-.04.66-.1.14,0,.27-.01.41-.03.2.06.4.1.6.1.15,0,.3-.03.44-.07.04,0,.08.02.12.02.1,0,.21-.02.31-.03.08.01.17.03.25.03.2,0,.39-.05.58-.12.29,0,.59-.07.86-.17.07,0,.15.02.22.02.21,0,.41-.04.6-.11.06,0,.11-.01.16-.02.11.04.23.06.35.06.23,0,.47-.05.69-.12.13-.01.26-.04.38-.09.01,0,.03,0,.04,0,.18,0,.34-.04.5-.1.02,0,.04,0,.06,0,.27,0,.52-.05.76-.14.12.01.24.02.36.02.18,0,.36-.03.54-.07,0,0,.01,0,.02,0,.11,0,.21-.02.31-.04.08.01.16.03.24.03.21,0,.39-.06.56-.15,0,0,0,0,0,0,.26,0,.53-.04.77-.13.11.02.23.04.34.04.23,0,.43-.07.62-.18.15,0,.29-.04.42-.09.03,0,.05,0,.08,0,.22,0,.45-.04.66-.1.15,0,.3-.03.44-.07,0,0,.01,0,.02,0,.33,0,.65-.1.93-.26.06.01.12.03.19.03.35,0,.71-.06,1.02-.2.03,0,.06.01.09.01.18,0,.34-.04.49-.1.02,0,.04,0,.07,0,.03,0,.06-.01.08-.02,0,0,0,.01,0,.02-.02.09-.03.19-.03.28-.02.04-.03.09-.04.13-.02.04-.03.09-.04.13,0,.01,0,.03,0,.04-.02.1-.02.2,0,.29-.09.19-.13.41-.1.62-.09.18-.12.41-.09.63-.04.09-.06.19-.07.3-.05.13-.07.26-.07.4-.1.18-.13.41-.11.64,0,.02,0,.04,0,.07-.04.11-.04.24-.03.37-.05.15-.07.31-.05.47-.01.05-.03.09-.03.14-.08.17-.13.37-.12.56-.08.15-.09.32-.06.5-.09.19-.15.41-.12.63,0,.02-.02.04-.02.06-.05.14-.07.29-.05.45-.06.16-.08.35-.06.53,0,.02-.02.03-.02.05,0,.01-.02.02-.03.03-.14.23-.16.57-.09.85,0,0,0,0,0,0,0,.05-.01.11-.01.16-.03.07-.06.15-.07.22-.13.22-.2.51-.14.78,0,.02,0,.05,0,.08-.08.16-.13.34-.12.53-.05.14-.08.29-.07.45-.04.11-.05.24-.05.36-.09.18-.15.39-.13.6-.02.08-.02.16-.02.24-.09.17-.15.37-.15.57-.06.17-.09.36-.06.54,0,.02,0,.04,0,.06,0,.01-.02.02-.02.03-.12.2-.16.47-.13.72-.02.09-.03.17-.04.27-.03.1-.05.2-.04.3,0,.01-.02.03-.03.04-.08.14-.09.31-.07.49-.12.22-.16.52-.1.78-.02.02-.04.05-.05.07-.1.18-.08.39-.03.61-.08.16-.14.34-.13.52-.03.1-.04.21-.03.33-.05.1-.09.21-.1.32,0,0,0,0,0,.01-.11.19-.13.42-.09.66-.02.05-.04.09-.05.14-.02.02-.03.04-.05.07-.1.18-.14.41-.11.64-.08.17-.12.35-.11.53-.02.11-.03.22-.02.33-.07.15-.13.31-.14.47-.02.08-.03.17-.02.26-.1.18-.15.4-.14.62-.03.09-.04.18-.05.28-.06.14-.09.3-.07.46-.04.07-.07.14-.09.22,0,0-.01.01-.02.02-.08.13-.1.29-.09.46-.1.19-.15.43-.13.66-.04.13-.06.27-.05.41-.02.07-.03.14-.03.21-.11.21-.18.46-.12.7-.08.14-.13.29-.16.45-.05.13-.06.27-.05.42-.03.07-.05.14-.06.21,0,0,0,0,0,0-.11.18-.2.41-.2.63-.02.07-.02.15-.02.23-.02.05-.03.11-.04.16-.07.12-.1.26-.1.4-.04.08-.05.17-.05.26,0,0,0,0,0,0-.08.15-.09.32-.06.49-.05.1-.09.2-.11.31-.09.2-.13.42-.07.65,0,.02.02.04.03.07,0,.01,0,.03,0,.04-.03.11-.03.23-.02.35,0,.15.02.32.06.47,0,0,0,0,0,0-.02.1-.02.21,0,.31.04.15.12.28.23.38.02.05.04.09.06.14,0,0,0,.01,0,.02.06.22.18.43.34.58.07.09.15.17.24.23.07.12.16.22.26.29.07.1.16.18.26.24.08.05.17.08.26.11.08.09.16.17.26.22.09.05.2.08.31.1.12.07.26.12.4.14.21.1.47.15.71.09.14.06.28.11.43.11.11.03.23.04.34.03.16.05.33.05.51.02.17.09.38.13.58.12.17.03.36.02.52-.02,0,0,0,0,0,0,.03,0,.07,0,.1,0,.15.07.3.1.46.08.13.04.28.06.42.05.11.02.22.03.34.02.11.02.22.02.34,0,.07,0,.14,0,.21-.02.14.03.28.02.43,0,.1.04.19.08.3.09.17.05.36.07.53.03.03,0,.07-.03.1-.04.17.07.36.11.54.07,0,0,0,0,.01,0,.1,0,.2,0,.3-.02,0,0,0,0,.01,0,.18.06.38.07.57.04.07,0,.13,0,.2,0,.16.04.34.04.51,0,.02,0,.03-.01.04-.02.03,0,.06-.01.09-.02.02,0,.04.01.06.01.19.09.43.13.65.1.15.03.31.02.46-.01,0,0,0,0,0,0,.1.02.21.03.31,0,.02,0,.04-.02.06-.03.03,0,.06,0,.1-.01.1,0,.21-.01.32-.03.09,0,.18,0,.27-.01.17.09.35.15.54.1,0,0,.02,0,.03-.01.08,0,.16,0,.24-.02.12.03.24.04.36.01.08-.02.15-.05.22-.09.12.04.25.05.39,0,0,0,0,0,0,0,.12.03.25.05.37.04.19.05.39.05.58,0,.03,0,.05-.02.08-.04.07,0,.14-.01.21-.03.08-.02.15-.05.22-.09,0,0,.01,0,.02,0,.21.09.45.14.68.08.02,0,.03-.02.05-.02.08.01.16.02.25,0,.02,0,.03-.01.05-.02.05,0,.1-.02.16-.03.07,0,.14,0,.21-.02.08,0,.17-.02.25-.03.16.03.33.04.49,0,.02,0,.04-.02.07-.03.18.04.38.05.55,0,0,0,.01,0,.02,0,.1.01.2.01.3-.01.07-.02.13-.05.19-.09.14.02.29.02.42-.02.04-.01.08-.03.13-.05.06,0,.12,0,.18-.02.06-.02.11-.04.16-.07.05,0,.09,0,.14-.02.14-.04.27-.11.38-.2.07,0,.13,0,.2-.03.15-.04.26-.13.36-.23.07,0,.14,0,.2-.03.22-.06.4-.23.53-.41,0,0,.02,0,.03-.02.14-.06.25-.16.34-.28.14-.08.25-.19.34-.31.16-.08.29-.19.38-.33.08-.13.12-.3.12-.47.05-.09.09-.18.11-.28.01-.03.02-.06.03-.09.01-.02.02-.03.03-.05.04-.08.07-.15.09-.23,0-.01.02-.02.03-.03.08-.15.11-.32.1-.49.05-.14.07-.3.06-.46.03-.16.04-.34,0-.5-.01-.05-.04-.1-.06-.15,0-.05,0-.1-.02-.15,0,0,0-.01,0-.02.02-.1.03-.2,0-.3-.04-.17-.14-.33-.27-.46-.03-.1-.08-.2-.13-.28,0-.04-.01-.07-.02-.11-.06-.22-.19-.43-.35-.57-.07-.14-.16-.26-.28-.34-.08-.14-.21-.25-.35-.34-.06-.17-.14-.33-.28-.41-.05-.03-.1-.04-.16-.05-.02-.02-.04-.04-.07-.05-.07-.11-.15-.21-.26-.27-.07-.04-.15-.07-.24-.09-.01,0-.02-.02-.03-.02-.08-.09-.16-.17-.25-.22-.07-.04-.16-.06-.25-.07-.02-.01-.03-.03-.05-.04-.13-.07-.28-.11-.44-.12-.05-.04-.1-.07-.15-.1-.1-.06-.21-.08-.32-.09-.15-.08-.32-.14-.49-.15-.13-.07-.26-.13-.4-.14-.18-.1-.39-.17-.6-.16-.11-.04-.22-.06-.33-.05-.03-.01-.06-.03-.09-.04-.01,0-.02-.02-.03-.02-.09-.05-.2-.06-.31-.06-.03,0-.05,0-.08,0,0,0,0,0,0,0-.03,0-.05,0-.08,0-.19-.09-.41-.14-.62-.11-.22-.11-.51-.13-.76-.07-.13-.06-.27-.09-.41-.05-.02,0-.04.02-.06.02-.11-.04-.23-.05-.35-.04-.23-.1-.52-.14-.77-.07-.05.01-.09.04-.13.06-.02,0-.04,0-.06,0-.11-.03-.22-.04-.34-.03-.14-.04-.3-.04-.46-.01-.2-.08-.43-.1-.65-.04-.03,0-.06.03-.09.04-.05,0-.09,0-.14,0-.14-.03-.29-.03-.45,0-.18-.08-.37-.14-.57-.09-.05.01-.1.04-.15.07-.03,0-.06,0-.09.01-.18-.08-.37-.13-.57-.08-.04.01-.07.03-.11.05-.09,0-.17,0-.26.03,0,0-.02,0-.02,0-.2-.07-.44-.07-.66-.02-.03-.01-.06-.01-.09-.02.06-.17.07-.37.04-.55.03-.09.04-.17.03-.26.02-.11.02-.23,0-.34,0-.01.01-.03.02-.04,0,0,0,0,0,0,0-.01,0-.02.01-.04.02-.04.03-.07.05-.11.01-.04.02-.08.03-.12,0-.03.01-.06.01-.09,0-.02,0-.03,0-.05.09-.2.13-.43.09-.66.06-.15.06-.31.04-.48.05-.11.09-.22.1-.34.08-.2.13-.43.07-.65,0-.02-.01-.04-.02-.06,0,0,0-.01,0-.02.1-.19.18-.4.14-.62,0-.04,0-.09,0-.13.06-.12.1-.25.12-.39.06-.18.05-.4,0-.61.03-.1.05-.2.05-.31.07-.14.12-.3.12-.46.02-.07.03-.14.03-.21,0,0,0,0,0,0,.11-.2.08-.45.03-.69.03-.07.06-.13.07-.2,0,0,0,0,.01-.01.11-.19.09-.43.04-.67.05-.09.08-.19.11-.29.07-.15.09-.33.07-.52.05-.16.04-.34,0-.53.08-.17.12-.35.11-.53.04-.1.07-.22.08-.33.08-.2.08-.43.03-.66.05-.12.09-.25.09-.38.07-.19.1-.41.06-.62.01-.12,0-.25-.03-.39.06-.15.07-.31.05-.48.1-.18.17-.37.14-.57.03-.13.04-.26.02-.4.09-.19.14-.41.08-.63,0,0,0-.01,0-.02.06-.14.09-.3.05-.45,0-.01,0-.02-.01-.03,0-.01,0-.02,0-.03,0,0,.01-.01.02-.02.14-.23.16-.58.09-.86,0,0,0,0,0-.01.06-.15.08-.3.04-.46,0-.03-.02-.06-.04-.09,0-.07,0-.13,0-.2.03-.1.04-.21.04-.33.07-.16.08-.35.06-.54.06-.15.08-.32.07-.49.06-.2.08-.42.03-.63,0-.02-.02-.04-.02-.06.03-.1.03-.2.01-.3.07-.17.12-.34.07-.52-.01-.05-.04-.09-.06-.14,0-.01,0-.03,0-.04.03-.11.03-.22.02-.33.08-.22.09-.49.02-.73,0-.02-.02-.05-.03-.07,0-.04,0-.07,0-.11.02-.12.02-.25,0-.38.07-.19.08-.41.03-.62-.01-.05-.04-.09-.06-.13.01-.08.01-.16,0-.24.05-.18.04-.39,0-.59.05-.15.07-.32.03-.48,0-.01-.01-.02-.02-.04.02-.1.02-.19,0-.29-.02-.07-.05-.14-.08-.21,0-.02-.05-.49-.07-.66.05-.02.11-.02.15-.05.34-.02.68-.07.96-.23.29,0,.57-.07.82-.19.08,0,.16-.02.24-.03,0,0,0,0,0,0,.39,0,.73-.18,1.03-.41.23-.05.44-.15.63-.29.09,0,.18.02.27.02.51,0,.93-.21,1.27-.53.03,0,.05,0,.08,0,.49,0,.96-.05,1.31-.33,0,0,.02,0,.03,0,.41,0,.81-.08,1.14-.27.06,0,.12.02.18.02.5,0,.97-.28,1.32-.6.43,0,.78-.19,1.08-.45.06,0,.11.02.18.02.53,0,.94-.31,1.29-.66.53,0,1.05-.02,1.4-.37.02-.02.03-.04.05-.06.46-.02.89-.12,1.19-.42.02-.02.03-.04.05-.06.44-.03.86-.15,1.16-.44.02-.02.03-.04.04-.05.38-.02.74-.11,1.03-.32.48-.03.93-.31,1.26-.63.32-.05.59-.21.83-.42.05,0,.09.01.14.01.54,0,1.06-.29,1.42-.64.02-.02.04-.06.06-.08.35-.05.66-.2.91-.41.48-.04.96-.26,1.28-.57.02-.02.03-.05.05-.07.4-.06.78-.22,1.04-.49.01-.01.01-.02.02-.04.38-.1.72-.33.98-.6,0,0,0,0,0,0,.43-.05.83-.22,1.11-.5.03-.03.05-.07.08-.11.25-.11.47-.29.67-.48.49-.04.89-.35,1.22-.68.01-.01.02-.03.03-.04.35-.09.64-.3.9-.55.45-.04.88-.19,1.18-.48.05-.05.08-.11.12-.17.27-.15.5-.37.71-.58.05-.05.08-.1.13-.15.23-.07.43-.19.62-.35.46-.07.82-.45,1.13-.76.02-.02.05-.05.07-.07.34-.09.64-.28.89-.53.01-.01.02-.03.04-.04.31-.14.57-.41.81-.65.06-.06.11-.11.17-.17.31-.05.6-.15.82-.38.08-.08.14-.16.2-.25.28-.05.54-.15.74-.34.1-.1.19-.22.27-.34.21-.08.39-.19.55-.35.11-.11.21-.24.31-.37.19-.07.37-.16.52-.31.1-.1.19-.22.27-.35.18-.1.35-.23.5-.38.06-.06.12-.13.19-.2.26-.09.5-.22.69-.41.08-.08.16-.18.24-.28.2-.13.38-.28.53-.43.06-.06.12-.13.18-.2.26-.1.49-.24.67-.42.16-.16.27-.37.33-.6.1-.07.19-.15.28-.24.1-.1.2-.21.28-.32.18-.09.34-.21.49-.36.05-.05.09-.1.13-.15.27-.11.51-.27.7-.46.21-.21.38-.5.49-.81.02-.02.05-.05.07-.07.06-.06.12-.13.17-.2.28-.04.54-.13.73-.32s.35-.44.46-.71c.04-.04.09-.07.13-.11.16-.16.27-.35.35-.56.09-.08.17-.16.25-.24.11-.11.19-.23.26-.35.16-.1.31-.21.44-.34.18-.18.36-.38.5-.6.05-.04.11-.07.16-.12.11-.11.23-.24.33-.38.16-.05.31-.12.42-.24.17-.17.28-.41.35-.66.07-.05.14-.09.2-.15.2-.2.3-.46.35-.74.05-.04.09-.08.14-.13.11-.11.2-.24.27-.37.16-.07.3-.16.42-.28.17-.17.32-.38.42-.62.05-.05.11-.09.16-.14.2-.2.31-.46.38-.74.04-.03.08-.06.11-.09.11-.11.19-.22.26-.35.15-.08.29-.18.41-.29.2-.2.33-.46.42-.75.02-.02.05-.03.08-.06.19-.19.3-.44.36-.71.04-.03.08-.06.12-.1.22-.22.35-.5.42-.8.01-.01.02-.02.03-.03.31-.31.66-.68.74-1.13.02-.02.04-.05.05-.07.11-.07.21-.15.29-.24.23-.23.42-.56.52-.91.16-.19.29-.41.38-.66,0,0,.01,0,.02-.02.24-.24.37-.58.42-.94.22-.25.36-.54.41-.87.21-.23.36-.47.43-.76.13-.13.26-.27.36-.42.05-.04.1-.07.15-.11.32-.32.51-.83.55-1.32.09-.19.15-.39.18-.61.25-.26.49-.55.57-.89.19-.24.34-.52.39-.83.15-.25.25-.53.27-.84.25-.28.45-.59.45-.98,0-.01,0-.02,0-.03.02-.05.04-.1.05-.15,0,0,.01,0,.02-.01.22-.22.32-.51.37-.82.32-.34.54-.84.56-1.34.07-.11.13-.22.18-.34.22-.3.31-.69.34-1.09.2-.28.34-.61.35-.97.07-.12.13-.24.17-.38.12-.2.17-.44.19-.69.28-.33.39-.82.4-1.3.19-.25.33-.53.35-.85.05-.23.07-.48.07-.72.12-.15.21-.32.27-.5.14-.27.18-.6.19-.93.16-.28.24-.62.25-.98.18-.27.31-.56.31-.9,0-.08-.02-.15-.03-.22.01-.03.03-.07.04-.1.2-.32.28-.72.29-1.13.18-.27.31-.58.31-.92,0-.11-.02-.22-.05-.33.02-.11.03-.23.04-.35.2-.26.35-.56.35-.9,0-.16-.04-.32-.1-.46,0,0,0,0,0,0,.24-.31.42-.7.42-1.1,0-.09-.02-.17-.03-.26.07-.16.12-.33.12-.52,0-.13-.02-.26-.06-.37.01-.12.01-.25.01-.37.14-.22.24-.47.25-.75.12-.26.19-.54.19-.82,0-.13-.02-.26-.06-.38.02-.13.02-.26.02-.39,0-.01,0-.02,0-.03.15-.22.26-.46.26-.73,0-.22-.05-.45-.12-.66,0-.03,0-.07,0-.1,0-.02,0-.04,0-.05.11-.21.17-.44.17-.7,0-.02,0-.05,0-.07.14-.2.24-.43.24-.68,0-.06-.02-.12-.03-.18.05-.19.09-.38.09-.57s-.05-.39-.11-.57c.15-.29.25-.6.25-.92,0-.15-.03-.29-.08-.42.02-.1.03-.21.03-.32,0-.04,0-.08-.01-.12.05-.2.09-.41.09-.62,0-.14-.02-.28-.05-.42.05-.15.09-.3.09-.47,0-.07-.02-.13-.02-.2.09-.24.15-.49.15-.74,0-.32-.11-.64-.27-.93h0c0-.14,0-.27-.01-.41.02-.17.04-.35.04-.53,0-.1,0-.2,0-.29.12-.19.19-.4.19-.64s-.05-.45-.13-.67c0-.09.02-.17.02-.26,0-.28-.05-.57-.14-.83,0-.03,0-.06,0-.09,0-.17-.04-.33-.1-.47.05-.14.09-.29.09-.45,0-.2-.06-.38-.15-.55.03-.12.06-.25.06-.38,0-.25-.07-.48-.17-.7,0-.07.02-.15.02-.22s-.02-.14-.03-.21c.08-.08.15-.17.2-.28.08-.07.16-.14.24-.21.01-.01.03-.03.04-.05.03-.02.07-.04.1-.07.17-.05.33-.12.45-.24.08-.08.13-.17.18-.27.07-.04.14-.09.2-.15.15-.05.29-.13.39-.23.06-.06.1-.12.13-.19.02-.02.05-.04.07-.06.11-.05.22-.12.3-.2.06-.06.11-.12.15-.19,0,0,0,0,.01,0,.08-.04.15-.09.22-.15.17-.05.33-.14.45-.25.07-.07.12-.16.17-.25.12-.06.22-.13.31-.22.04-.04.08-.09.11-.14.18-.05.35-.13.46-.24.03-.03.05-.07.07-.11.06-.04.11-.09.16-.14,0,0,0-.01.01-.02.1-.05.19-.11.26-.18.03-.03.06-.08.08-.12.06-.04.11-.09.16-.13.07-.07.12-.15.17-.23.15-.04.29-.1.39-.2.04-.04.08-.1.11-.15.05-.03.09-.06.13-.1.03-.03.06-.07.08-.1.06-.04.12-.08.17-.13.08-.08.13-.19.17-.3,0,0,0,0,.01-.01.03-.03.05-.06.08-.09.07-.04.13-.08.19-.14.1-.1.16-.21.2-.34.01-.01.02-.02.03-.03.07-.06.13-.12.19-.17.1-.1.21-.21.29-.34.07-.04.14-.08.19-.14.08-.08.16-.19.22-.3.08-.08.13-.18.17-.29.1-.1.19-.21.26-.33.11-.12.2-.26.25-.42,0-.02.02-.04.03-.05,0,0,.02-.02.03-.03.05-.05.09-.1.13-.15.04-.02.07-.04.11-.07.14-.14.24-.33.29-.54.05-.06.08-.12.12-.19.09-.12.17-.26.2-.41.05-.07.09-.15.12-.24,0,0,0,0,.01-.01.03-.02.06-.04.08-.06.07-.07.1-.15.13-.25.03-.06.04-.12.05-.19.06-.09.11-.19.13-.3.14-.17.25-.38.27-.61.01-.04.02-.08.03-.12.01-.01.02-.03.03-.04,0,0,.02-.01.03-.02.16-.16.26-.42.29-.67.07-.11.11-.24.13-.37.04-.07.07-.15.09-.23.02-.05.03-.1.04-.16.1-.16.15-.36.16-.56.08-.12.13-.24.13-.39,0-.06,0-.11-.02-.17,0-.03.02-.06.02-.1.15-.19.25-.46.25-.7,0-.04,0-.08-.01-.12,0-.02,0-.04,0-.06.06-.15.09-.31.09-.47,0-.01,0-.02,0-.03.01-.05.02-.11.03-.16.07-.15.12-.31.12-.46,0-.07-.01-.13-.03-.19.06-.15.1-.31.1-.47,0-.04,0-.07-.01-.11.03-.07.05-.14.05-.22,0-.1-.03-.2-.06-.3Z"/>
</svg>